<?xml version="1.0" encoding="UTF-8" standalone="no"?>
<!DOCTYPE svg PUBLIC "-//W3C//DTD SVG 1.1//EN" "http://www.w3.org/Graphics/SVG/1.1/DTD/svg11.dtd">
<svg xmlns="http://www.w3.org/2000/svg" version="1.1" viewBox="0.00 0.00 100.00 100.00">
<g stroke-width="2.00" fill="none" stroke-linecap="butt">
<path stroke="#818080" vector-effect="non-scaling-stroke" d="
  M 50.05 0.00
  Q 26.25 0.65 11.42 18.44
  C -10.07 44.22 0.42 83.03 30.99 96.07
  C 48.32 103.46 69.39 99.64 83.20 86.92
  C 116.51 56.22 96.47 2.35 51.55 0.00"
/>
<path stroke="#361f06" vector-effect="non-scaling-stroke" d="
  M 91.16 75.20
  Q 90.59 75.47 91.55 74.06"
/>
<path stroke="#813f01" vector-effect="non-scaling-stroke" d="
  M 91.55 74.06
  Q 91.88 73.77 92.07 73.41
  Q 102.09 53.90 95.53 34.64
  C 87.84 12.05 65.17 -1.56 41.56 2.52
  C 19.35 6.35 2.16 26.13 1.74 48.78
  C 1.26 75.20 21.73 97.00 48.17 97.97
  Q 74.76 98.95 91.16 75.20"
/>
<path stroke="#b55d06" vector-effect="non-scaling-stroke" d="
  M 91.55 74.06
  L 85.97 68.43
  A 1.44 1.38 21.6 0 1 85.57 67.56
  Q 85.36 64.21 86.83 61.22
  A 1.20 1.20 0.0 0 0 86.83 60.16
  C 84.92 56.12 82.03 61.46 81.95 63.38
  A 0.57 0.57 0.0 0 1 80.82 63.44
  Q 80.69 62.52 79.87 62.06
  Q 79.39 61.78 78.97 62.16
  Q 78.08 62.98 77.51 64.30"
/>
<path stroke="#813f01" vector-effect="non-scaling-stroke" d="
  M 77.51 64.30
  L 74.75 63.31
  A 1.41 1.41 0.0 0 0 73.84 63.28
  Q 70.92 64.17 70.22 67.26
  A 0.46 0.45 -64.8 0 1 69.50 67.52
  C 65.53 64.52 62.66 67.18 59.78 69.79
  Q 59.32 70.21 59.06 69.65
  L 58.72 68.90
  Q 58.49 68.42 57.97 68.31
  Q 54.90 67.67 54.13 70.74
  A 0.53 0.53 0.0 0 0 54.82 71.36
  L 55.23 71.22"
/>
<path stroke="#e0933a" vector-effect="non-scaling-stroke" d="
  M 55.23 71.22
  Q 55.15 72.05 55.41 71.73"
/>
<path stroke="#813f01" vector-effect="non-scaling-stroke" d="
  M 55.41 71.73
  L 54.57 71.75
  A 2.33 2.32 56.9 0 1 53.54 71.53
  Q 48.32 68.96 44.63 73.58
  Q 44.13 74.21 43.49 73.72
  L 42.30 72.80
  Q 41.92 72.51 41.47 72.66
  C 39.23 73.38 39.19 77.01 38.59 76.85"
/>
<path stroke="#9c5407" vector-effect="non-scaling-stroke" d="
  M 38.59 76.85
  Q 30.17 73.03 26.38 81.60
  A 1.08 1.07 -4.9 0 0 27.96 82.93
  L 29.71 81.77
  A 0.61 0.60 58.5 0 1 30.57 81.98
  Q 32.56 85.53 33.17 89.53
  A 1.90 1.86 19.4 0 0 33.65 90.51
  L 37.00 94.10
  A 0.99 0.99 0.0 0 0 38.66 93.11
  L 37.12 88.65
  Q 36.93 88.08 37.27 87.59
  L 39.31 84.68
  A 0.37 0.37 0.0 0 1 39.98 84.90
  Q 39.89 87.99 42.28 89.91
  A 0.92 0.92 0.0 0 0 43.77 89.05
  L 43.16 85.10
  A 0.95 0.95 0.0 0 1 44.94 84.52
  Q 46.38 87.35 49.03 89.05
  Q 49.49 89.35 49.88 88.96
  Q 50.61 88.22 49.94 86.55"
/>
<path stroke="#813f01" vector-effect="non-scaling-stroke" d="
  M 49.94 86.55
  Q 50.49 86.28 50.80 85.74"
/>
<path stroke="#e0933a" vector-effect="non-scaling-stroke" d="
  M 50.80 85.74
  L 51.99 86.45"
/>
<path stroke="#813f01" vector-effect="non-scaling-stroke" d="
  M 51.99 86.45
  Q 51.14 88.38 53.39 87.91
  Q 53.90 87.81 53.70 87.32
  L 52.18 83.62
  A 0.44 0.44 0.0 0 1 52.62 83.01
  Q 55.49 83.21 57.71 84.95
  Q 58.18 85.32 58.64 84.93
  L 61.40 82.62
  A 0.67 0.67 0.0 0 1 62.34 82.68
  L 64.25 84.82
  Q 64.59 85.20 65.06 84.99
  Q 70.66 82.53 71.79 76.50
  A 0.42 0.42 0.0 0 1 72.53 76.32
  Q 76.73 81.59 81.05 76.40
  Q 81.39 75.99 81.61 76.48
  L 82.79 79.07
  A 0.68 0.68 0.0 0 0 83.75 79.37
  Q 84.21 79.09 84.35 78.43"
/>
<path stroke="#b55d06" vector-effect="non-scaling-stroke" d="
  M 84.35 78.43
  Q 84.96 75.70 84.54 73.10
  A 0.45 0.45 0.0 0 1 85.25 72.66
  Q 87.41 74.21 91.16 75.20"
/>
<path stroke="#62553a" vector-effect="non-scaling-stroke" d="
  M 51.99 86.45
  Q 52.14 84.64 51.05 82.47
  Q 50.74 81.85 51.43 81.90
  Q 54.57 82.14 57.34 83.47
  Q 57.79 83.68 58.27 83.55
  Q 60.92 82.83 60.38 80.79"
/>
<path stroke="#813f01" vector-effect="non-scaling-stroke" d="
  M 60.38 80.79
  L 59.98 79.69
  A 0.49 0.48 -44.1 0 0 59.07 79.68
  Q 58.66 80.71 59.75 81.29"
/>
<path stroke="#62553a" vector-effect="non-scaling-stroke" d="
  M 59.75 81.29
  L 59.89 81.52
  Q 60.00 81.69 59.81 81.76
  Q 58.52 82.21 57.76 80.63
  Q 57.50 80.09 57.83 79.59
  L 58.92 77.92
  A 0.91 0.91 0.0 0 1 60.46 77.93
  L 63.56 82.78
  A 0.57 0.57 0.0 0 0 64.55 82.22
  L 60.38 74.00
  A 0.70 0.69 53.6 0 1 60.49 73.21
  L 62.38 71.22
  Q 62.88 70.69 63.11 71.38
  Q 64.69 76.02 67.52 79.94
  Q 67.85 80.40 67.62 80.91
  C 67.40 81.41 65.85 82.95 65.99 83.25
  Q 66.19 83.69 66.57 83.39
  Q 72.97 78.34 70.50 70.79
  C 69.23 66.91 65.23 65.83 62.30 68.76
  Q 60.82 70.25 59.63 72.05
  Q 59.33 72.52 59.11 72.00
  L 58.16 69.64
  A 1.26 1.26 0.0 0 0 56.00 69.33
  Q 55.15 70.41 55.23 71.22"
/>
<path stroke="#361f06" vector-effect="non-scaling-stroke" d="
  M 84.35 78.43
  Q 82.54 77.52 82.42 76.28"
/>
<path stroke="#96733e" vector-effect="non-scaling-stroke" d="
  M 82.42 76.28
  Q 84.18 74.27 84.02 70.82
  A 0.37 0.37 0.0 0 1 84.65 70.55
  Q 86.81 72.83 89.77 73.94
  A 0.31 0.31 0.0 0 0 90.08 73.42
  L 84.72 68.85
  A 1.21 1.18 17.0 0 1 84.31 68.10
  Q 83.81 64.27 85.49 60.83
  Q 85.74 60.30 85.16 60.25
  C 83.06 60.04 82.99 64.71 83.21 65.94
  A 0.66 0.66 0.0 0 1 82.06 66.48
  L 79.95 64.04
  A 0.71 0.70 28.2 0 0 78.72 64.41
  Q 78.70 64.58 78.70 64.79"
/>
<path stroke="#361f06" vector-effect="non-scaling-stroke" d="
  M 78.70 64.79
  Q 78.08 64.25 77.51 64.30"
/>
<path stroke="#1e1607" vector-effect="non-scaling-stroke" d="
  M 39.89 77.22
  Q 38.48 77.49 38.59 76.85"
/>
<path stroke="#e0933a" vector-effect="non-scaling-stroke" d="
  M 59.75 81.29
  Q 60.19 81.35 60.38 80.79"
/>
<path stroke="#62553a" vector-effect="non-scaling-stroke" d="
  M 50.80 85.74
  Q 50.02 83.55 48.33 81.92
  Q 48.08 81.68 48.28 81.41
  L 48.59 81.00
  A 0.83 0.81 52.0 0 0 48.68 80.20
  L 46.71 75.59
  Q 46.46 75.00 45.98 75.43
  L 44.56 76.70
  Q 44.20 77.03 44.43 77.46
  L 49.36 86.63"
/>
<path stroke="#7d6a3f" vector-effect="non-scaling-stroke" d="
  M 49.36 86.63
  Q 49.68 86.87 49.35 87.41
  A 0.80 0.80 0.0 0 1 47.99 87.42
  L 45.19 83.03
  A 1.49 1.49 0.0 0 0 42.45 83.94
  L 42.79 88.73
  A 0.29 0.29 0.0 0 1 42.24 88.89
  Q 40.10 84.98 40.57 80.02
  Q 40.71 78.60 39.89 77.22"
/>
<path stroke="#62553a" vector-effect="non-scaling-stroke" d="
  M 39.89 77.22
  Q 39.69 74.46 41.52 73.65
  A 0.72 0.72 0.0 0 1 42.46 74.00
  L 43.30 75.78
  Q 43.55 76.31 43.85 75.80
  Q 46.03 72.15 50.13 71.56
  C 56.12 70.71 53.13 76.68 51.82 79.09
  Q 51.47 79.73 52.17 79.94
  L 55.40 80.88
  Q 55.97 81.05 55.94 80.45
  L 55.41 71.73"
/>
<path stroke="#1e1607" vector-effect="non-scaling-stroke" d="
  M 49.94 86.55
  Q 49.78 86.40 49.36 86.63"
/>
<path stroke="#62553a" vector-effect="non-scaling-stroke" d="
  M 82.42 76.28
  Q 81.31 72.65 82.54 70.01
  A 1.62 1.61 -68.6 0 0 81.58 67.80
  Q 79.43 67.09 78.70 64.79"
/>
<path stroke="#813f01" vector-effect="non-scaling-stroke" d="
  M 61.59 52.96
  Q 65.81 51.53 67.78 47.43
  Q 67.88 47.20 68.13 47.23
  Q 68.31 47.26 68.50 47.23
  Q 69.04 47.17 68.74 47.62
  C 66.70 50.73 70.51 54.56 73.22 52.57
  Q 73.66 52.25 74.07 52.60
  Q 79.86 57.54 86.44 52.95
  C 89.79 50.60 88.67 48.27 87.73 44.99
  Q 87.58 44.49 87.96 44.11
  C 91.32 40.78 88.60 36.97 85.43 34.93
  Q 84.98 34.64 84.80 34.14
  Q 84.56 33.52 85.08 32.97
  A 2.67 2.07 29.8 0 0 83.59 29.34
  C 77.61 26.94 77.41 19.82 69.45 20.78
  A 1.20 1.19 -86.6 0 1 68.15 19.31
  C 69.73 12.66 60.81 9.59 56.92 6.66
  Q 55.23 5.39 53.37 4.37
  C 46.11 0.39 37.56 6.88 34.85 13.42
  C 34.18 15.01 34.67 16.90 34.77 18.62
  Q 34.80 19.13 34.42 19.47
  C 31.16 22.41 33.45 24.33 33.78 27.75
  A 0.50 0.49 -80.4 0 1 33.08 28.25
  Q 29.68 26.69 27.00 24.08
  C 22.96 20.13 17.28 21.31 13.60 25.09
  C 11.02 27.75 6.01 32.84 7.76 36.73
  C 10.09 41.88 16.84 44.00 17.78 49.24
  A 0.56 0.56 0.0 0 1 17.22 49.89
  Q 14.33 49.83 13.16 52.30
  Q 12.91 52.80 12.36 52.83
  C 9.07 52.99 7.25 54.96 8.11 58.30
  C 9.05 62.00 10.75 70.01 16.66 66.70
  Q 17.09 66.46 17.55 66.63
  C 21.05 67.91 26.16 64.89 29.38 63.56
  A 1.39 1.38 82.5 0 1 31.28 65.02
  Q 31.07 66.61 29.57 67.36
  Q 29.10 67.59 28.58 67.50
  Q 26.08 67.05 24.30 68.70
  A 1.29 1.26 26.1 0 1 23.30 69.03
  Q 21.06 68.76 19.54 70.29
  Q 19.16 70.67 19.25 71.20
  Q 19.51 72.71 17.87 73.14
  Q 17.24 73.31 17.13 73.95
  L 16.82 75.74
  Q 16.51 77.54 17.44 75.97
  Q 19.02 73.28 22.43 73.64
  Q 22.87 73.68 23.18 74.01
  Q 27.02 78.07 30.53 73.82
  Q 30.86 73.41 31.37 73.55
  C 34.82 74.46 37.69 70.17 39.78 67.51
  C 41.67 65.09 38.05 62.53 36.61 60.89
  Q 36.13 60.34 36.83 60.12
  C 40.53 58.95 44.37 58.75 49.10 56.84
  Q 49.73 56.59 49.81 57.26
  Q 50.06 59.27 51.48 60.74
  Q 51.87 61.13 52.36 61.39
  Q 55.30 62.91 57.35 65.48
  A 1.81 1.80 -58.1 0 0 60.52 64.74
  Q 61.76 59.17 61.20 53.55
  Q 61.16 53.11 61.59 52.96"
/>
<path stroke="#726d55" vector-effect="non-scaling-stroke" d="
  M 40.15 8.56
  Q 35.74 14.35 38.62 21.51
  A 0.40 0.39 5.3 0 1 38.04 21.99
  L 36.52 21.02
  A 0.50 0.50 0.0 0 0 35.82 21.19
  C 30.63 29.93 45.20 31.59 46.05 38.98
  Q 46.39 41.91 47.07 43.65
  C 48.83 48.20 50.21 57.60 53.95 60.55
  C 56.22 62.33 57.01 63.22 58.47 65.15
  A 0.76 0.75 10.2 0 0 59.71 64.29
  L 58.09 61.72"
/>
<path stroke="#605c45" vector-effect="non-scaling-stroke" d="
  M 58.09 61.72
  L 59.44 62.17
  Q 60.20 62.43 60.22 61.63
  L 60.43 55.04
  Q 60.45 54.42 59.83 54.31
  Q 58.30 54.04 57.01 55.33"
/>
<path stroke="#59565a" vector-effect="non-scaling-stroke" d="
  M 57.01 55.33
  Q 55.10 55.30 55.22 56.53
  A 0.39 0.39 0.0 0 0 55.98 56.59
  Q 56.30 55.40 57.03 56.01"
/>
<path stroke="#605c45" vector-effect="non-scaling-stroke" d="
  M 57.03 56.01
  Q 57.27 56.99 57.01 58.18
  Q 56.89 58.72 57.38 58.99
  Q 59.05 59.89 58.09 61.72"
/>
<path stroke="#726d55" vector-effect="non-scaling-stroke" d="
  M 58.09 61.72
  Q 58.09 60.12 56.03 59.36
  Q 55.53 59.18 55.20 58.76
  Q 52.57 55.36 51.10 51.29"
/>
<path stroke="#59565a" vector-effect="non-scaling-stroke" d="
  M 51.10 51.29
  Q 51.72 50.82 51.46 49.76"
/>
<path stroke="#726d55" vector-effect="non-scaling-stroke" d="
  M 51.46 49.76
  Q 51.75 49.35 51.77 48.78
  A 1.37 1.35 26.2 0 0 51.46 47.89
  C 49.45 45.49 51.12 43.57 51.76 41.21
  Q 51.91 40.67 51.42 40.39
  Q 47.44 38.13 46.08 33.69
  A 0.24 0.23 21.2 0 1 46.51 33.51
  Q 47.45 35.01 49.24 35.24
  A 0.48 0.48 0.0 0 1 49.52 36.05
  Q 48.27 37.33 50.00 38.36
  Q 50.98 38.95 51.43 37.90
  C 53.41 33.36 36.42 27.74 47.88 20.94"
/>
<path stroke="#605c45" vector-effect="non-scaling-stroke" d="
  M 47.88 20.94
  C 47.13 22.18 44.39 25.98 45.66 26.83
  Q 46.12 27.14 46.51 26.74
  L 48.80 24.31
  Q 49.23 23.85 49.86 23.85
  Q 53.21 23.83 56.77 22.57"
/>
<path stroke="#726d55" vector-effect="non-scaling-stroke" d="
  M 56.77 22.57
  Q 58.05 24.65 60.20 26.09"
/>
<path stroke="#605c45" vector-effect="non-scaling-stroke" d="
  M 60.20 26.09
  Q 61.08 26.55 59.85 27.75
  A 0.46 0.46 0.0 0 0 59.99 28.50
  L 61.87 29.30
  Q 62.43 29.53 62.85 29.10
  Q 64.60 27.33 63.57 24.46"
/>
<path stroke="#726d55" vector-effect="non-scaling-stroke" d="
  M 63.57 24.46
  C 70.24 29.43 58.04 31.46 61.60 36.22"
/>
<path stroke="#605c45" vector-effect="non-scaling-stroke" d="
  M 61.60 36.22
  Q 61.44 37.77 62.74 38.52
  A 2.04 2.04 0.0 0 0 65.51 37.82
  Q 66.27 36.58 67.29 35.58
  A 0.62 0.62 0.0 0 1 68.16 36.46
  L 67.41 37.21
  Q 66.96 37.67 67.37 38.17
  L 69.00 40.13
  Q 69.43 40.64 70.00 40.28
  Q 73.42 38.14 72.28 40.40"
/>
<path stroke="#726d55" vector-effect="non-scaling-stroke" d="
  M 72.28 40.40
  Q 72.68 41.47 74.40 42.86
  A 0.47 0.46 51.2 0 1 74.32 43.63
  Q 72.54 44.56 72.75 46.56
  A 0.78 0.78 0.0 0 1 72.24 47.37
  C 67.27 49.19 71.30 53.43 73.58 50.64
  Q 73.97 50.16 74.37 50.62
  Q 77.14 53.82 80.97 52.75"
/>
<path stroke="#605c45" vector-effect="non-scaling-stroke" d="
  M 80.97 52.75
  C 85.93 52.92 89.38 47.31 84.52 44.07"
/>
<path stroke="#726d55" vector-effect="non-scaling-stroke" d="
  M 84.52 44.07
  L 87.81 43.16"
/>
<path stroke="#605c45" vector-effect="non-scaling-stroke" d="
  M 87.81 43.16
  Q 89.10 35.50 79.38 35.07
  A 0.44 0.44 0.0 0 1 79.26 34.22
  L 82.11 33.24
  Q 82.63 33.06 82.77 32.53
  C 83.67 29.10 79.19 29.62 77.91 27.40
  Q 73.78 20.26 67.80 24.52"
/>
<path stroke="#726d55" vector-effect="non-scaling-stroke" d="
  M 67.80 24.52
  Q 67.22 21.76 63.60 19.42"
/>
<path stroke="#605c45" vector-effect="non-scaling-stroke" d="
  M 63.60 19.42
  Q 66.14 19.25 66.26 18.25
  C 66.89 12.89 59.75 9.88 55.74 8.53
  C 53.40 7.74 50.95 9.24 49.08 9.50
  Q 47.04 9.77 44.96 10.00
  A 0.96 0.95 -65.3 0 1 44.32 8.26
  Q 46.88 6.50 49.92 6.08
  A 0.54 0.54 0.0 0 1 50.37 7.01
  Q 49.12 8.21 47.56 7.74
  Q 47.13 7.61 46.69 7.70
  Q 45.96 7.85 45.54 8.41
  A 0.47 0.46 -69.8 0 0 45.88 9.15
  Q 49.62 9.45 52.55 7.35
  A 0.59 0.59 0.0 0 0 52.56 6.40
  C 48.72 3.53 43.46 6.20 40.15 8.56"
/>
<path stroke="#d0c898" vector-effect="non-scaling-stroke" d="
  M 63.60 19.42
  Q 64.00 19.26 64.41 19.11"
/>
<path stroke="#605c45" vector-effect="non-scaling-stroke" d="
  M 64.41 19.11
  C 65.31 13.50 60.42 13.95 56.72 13.28
  Q 56.20 13.19 55.70 13.38
  Q 53.29 14.34 51.40 12.73
  Q 51.05 12.44 50.59 12.45
  Q 45.98 12.63 43.01 16.89"
/>
<path stroke="#d0c898" vector-effect="non-scaling-stroke" d="
  M 43.01 16.89
  C 41.88 14.30 43.62 13.38 42.78 11.72
  Q 42.14 10.47 40.15 8.56"
/>
<path stroke="#726d55" vector-effect="non-scaling-stroke" d="
  M 43.01 16.89
  Q 45.93 14.15 48.53 13.50
  Q 49.65 13.22 52.43 14.03
  Q 55.17 14.83 58.01 14.24
  A 1.73 1.71 49.4 0 1 58.97 14.32
  Q 62.29 15.66 64.41 19.11"
/>
<path stroke="#d0c898" vector-effect="non-scaling-stroke" d="
  M 67.80 24.52
  C 67.60 26.20 68.63 26.64 70.12 26.34
  Q 74.84 25.38 77.00 29.76
  Q 77.24 30.26 77.00 30.75
  C 74.89 35.10 78.61 36.95 82.20 37.06
  Q 82.73 37.08 83.07 37.49
  L 87.81 43.16"
/>
<path stroke="#d0c898" vector-effect="non-scaling-stroke" d="
  M 84.52 44.07
  Q 83.54 44.20 83.47 45.00
  Q 83.43 45.53 83.87 45.82
  C 86.78 47.70 82.75 51.52 80.97 52.75"
/>
<path stroke="#d0c898" vector-effect="non-scaling-stroke" d="
  M 72.28 40.40
  Q 73.04 38.81 72.93 37.01
  Q 72.91 36.58 72.55 36.35
  L 67.60 33.02
  Q 67.17 32.72 66.89 33.17
  Q 64.84 36.51 61.60 36.22"
/>
<path stroke="#d0c898" vector-effect="non-scaling-stroke" d="
  M 63.57 24.46
  C 62.38 23.50 60.39 21.24 58.81 21.51
  Q 58.27 21.60 58.70 21.94
  L 61.43 24.11
  Q 61.96 24.54 61.70 25.17
  Q 61.40 25.86 60.20 26.09"
/>
<path stroke="#d0c898" vector-effect="non-scaling-stroke" d="
  M 56.77 22.57
  Q 52.15 19.61 47.88 20.94"
/>
<path stroke="#c9c2ad" vector-effect="non-scaling-stroke" d="
  M 51.46 49.76
  L 50.87 50.00
  Q 50.24 50.25 50.67 50.77
  L 51.10 51.29"
/>
<path stroke="#b7b19d" vector-effect="non-scaling-stroke" d="
  M 57.03 56.01
  L 57.01 55.33"
/>
<path stroke="#59565a" vector-effect="non-scaling-stroke" d="
  M 43.41 43.10
  Q 43.97 42.53 44.71 42.43
  Q 45.42 42.33 45.01 41.74
  L 43.32 39.37"
/>
<path stroke="#726d55" vector-effect="non-scaling-stroke" d="
  M 43.32 39.37
  L 38.29 36.01"
/>
<path stroke="#1e1607" vector-effect="non-scaling-stroke" d="
  M 38.29 36.01
  L 38.18 35.39"
/>
<path stroke="#726d55" vector-effect="non-scaling-stroke" d="
  M 38.18 35.39
  Q 38.90 34.93 38.78 34.25"
/>
<path stroke="#813f01" vector-effect="non-scaling-stroke" d="
  M 38.78 34.25
  L 39.03 34.25
  Q 39.37 34.25 39.61 34.48
  L 43.83 38.43
  A 0.43 0.43 0.0 0 0 44.52 37.93
  Q 42.82 34.39 38.68 33.45"
/>
<path stroke="#726d55" vector-effect="non-scaling-stroke" d="
  M 38.68 33.45
  C 36.04 31.78 36.02 29.37 32.00 30.04"
/>
<path stroke="#605c45" vector-effect="non-scaling-stroke" d="
  M 32.00 30.04
  C 28.59 27.52 25.51 23.55 20.88 23.66"
/>
<path stroke="#726d55" vector-effect="non-scaling-stroke" d="
  M 20.88 23.66
  Q 15.09 23.75 13.12 29.72
  Q 12.98 30.14 12.56 30.28
  C 6.61 32.35 11.19 40.03 14.29 42.35
  Q 17.43 44.70 17.92 45.41
  C 19.12 47.15 19.45 51.87 20.67 52.56
  A 1.47 1.47 0.0 0 0 22.80 50.86
  Q 21.06 45.08 16.61 41.16
  A 0.15 0.15 0.0 0 1 16.80 40.93
  Q 21.40 44.31 23.46 49.61
  Q 23.64 50.09 23.53 50.59
  C 22.09 56.84 27.52 60.36 32.02 63.44
  A 1.72 1.71 36.1 0 1 32.41 65.91
  L 31.19 67.47
  A 0.67 0.67 0.0 0 0 31.90 68.53
  Q 34.23 67.89 34.53 65.44
  A 0.46 0.45 40.2 0 1 35.42 65.37
  C 36.06 67.43 32.46 69.69 30.37 69.04
  C 28.23 68.38 26.00 67.42 24.67 70.05
  Q 24.46 70.46 24.04 70.27
  Q 21.28 69.07 20.14 71.59
  A 0.48 0.48 0.0 0 0 20.77 72.22
  L 21.92 71.71
  Q 22.47 71.47 22.80 71.96
  Q 24.10 73.89 25.82 74.42
  Q 27.91 75.07 28.74 73.31
  Q 28.91 72.96 28.85 72.58
  L 28.77 71.96
  Q 28.68 71.33 29.29 71.49
  L 32.67 72.38
  A 1.11 1.10 28.9 0 0 33.76 72.07
  L 38.18 67.45
  Q 39.61 65.94 38.04 64.59
  Q 34.00 61.10 31.32 57.15
  C 29.40 54.33 23.64 52.79 25.96 48.70
  A 0.25 0.25 0.0 0 1 26.42 48.91
  Q 25.68 51.05 27.20 52.27
  A 0.52 0.52 0.0 0 0 28.02 52.02
  Q 28.59 50.29 28.51 48.48
  Q 28.49 47.96 28.16 47.55
  Q 24.58 43.20 21.45 38.55
  C 19.50 35.64 16.96 33.89 18.53 29.86
  A 2.50 2.49 -62.4 0 1 22.25 28.69
  Q 25.94 31.17 30.36 31.86
  A 0.26 0.26 0.0 0 1 30.41 32.37
  C 28.61 33.02 24.98 30.97 23.45 30.18
  A 2.26 2.26 0.0 0 0 20.17 31.87
  Q 19.81 34.47 21.95 35.90
  Q 22.50 36.26 22.93 35.77
  L 24.68 33.73
  Q 25.02 33.33 25.32 33.76
  C 27.40 36.65 30.54 36.24 33.73 36.40
  Q 34.25 36.43 34.60 36.81
  Q 38.34 40.87 43.41 43.10"
/>
<path stroke="#d0c898" vector-effect="non-scaling-stroke" d="
  M 20.88 23.66
  C 24.40 26.36 26.81 30.07 32.00 30.04"
/>
<path stroke="#f0ab55" vector-effect="non-scaling-stroke" d="
  M 38.68 33.45
  L 38.78 34.25"
/>
<path stroke="#8d825a" vector-effect="non-scaling-stroke" d="
  M 38.18 35.39
  L 35.75 33.74
  Q 35.03 33.26 35.38 34.05
  Q 36.07 35.62 38.29 36.01"
/>
<path stroke="#c9c2ad" vector-effect="non-scaling-stroke" d="
  M 43.32 39.37
  Q 43.31 40.23 42.42 40.29
  Q 41.85 40.32 42.22 40.76
  Q 43.02 41.69 43.41 43.10"
/>
<path stroke="#813f01" vector-effect="non-scaling-stroke" d="
  M 53.30 40.48
  L 59.49 38.89
  Q 60.11 38.73 59.98 38.10
  L 59.02 33.43
  A 0.87 0.85 -29.2 0 1 59.25 32.66
  L 60.67 31.19
  A 0.53 0.53 0.0 0 0 60.53 30.35
  Q 58.45 29.28 58.77 26.91
  Q 58.82 26.50 58.55 26.19
  L 56.68 24.03
  Q 56.29 23.59 55.76 23.81
  C 51.92 25.38 49.47 23.99 47.58 28.85
  A 0.93 0.92 -53.6 0 0 47.71 29.75
  C 50.40 33.18 53.19 34.97 52.55 39.82
  A 0.61 0.60 -3.3 0 0 53.30 40.48"
/>
<path stroke="#813f01" vector-effect="non-scaling-stroke" d="
  M 23.73 37.54
  A 1.58 1.57 49.5 0 0 23.56 39.73
  L 29.96 47.46
  Q 30.23 47.79 30.65 47.71
  Q 35.83 46.72 40.16 43.69
  Q 40.50 43.45 40.19 43.18
  L 33.71 37.56
  Q 33.06 36.99 32.20 37.13
  Q 28.87 37.67 25.78 36.41
  Q 25.25 36.19 24.82 36.57
  L 23.73 37.54"
/>
<path stroke="#59565a" vector-effect="non-scaling-stroke" d="
  M 63.48 41.97
  Q 62.88 41.68 62.07 41.70"
/>
<path stroke="#2d2d2e" vector-effect="non-scaling-stroke" d="
  M 62.07 41.70
  Q 60.16 40.97 58.27 42.84"
/>
<path stroke="#1e1607" vector-effect="non-scaling-stroke" d="
  M 58.27 42.84
  L 55.03 42.57
  Q 54.45 42.52 54.73 43.03
  Q 55.14 43.76 55.97 44.24"
/>
<path stroke="#59565a" vector-effect="non-scaling-stroke" d="
  M 55.97 44.24
  Q 56.13 45.29 57.06 45.81"
/>
<path stroke="#2d2d2e" vector-effect="non-scaling-stroke" d="
  M 57.06 45.81
  L 57.22 48.88"
/>
<path stroke="#6d6d6e" vector-effect="non-scaling-stroke" d="
  M 57.22 48.88
  Q 57.77 48.49 57.39 49.24"
/>
<path stroke="#2d2d2e" vector-effect="non-scaling-stroke" d="
  M 57.39 49.24
  L 56.79 52.02
  Q 56.72 52.37 57.06 52.25
  L 62.87 50.21"
/>
<path stroke="#59565a" vector-effect="non-scaling-stroke" d="
  M 62.87 50.21
  L 64.81 48.03"
/>
<path stroke="#2d2d2e" vector-effect="non-scaling-stroke" d="
  M 64.81 48.03
  L 67.25 45.23"
/>
<path stroke="#59565a" vector-effect="non-scaling-stroke" d="
  M 67.25 45.23
  L 70.59 43.92
  A 0.99 0.99 0.0 0 0 71.22 43.06
  Q 71.28 41.71 69.72 42.04"
/>
<path stroke="#2d2d2e" vector-effect="non-scaling-stroke" d="
  M 69.72 42.04
  Q 68.59 41.18 67.12 41.23
  Q 66.63 41.24 66.24 41.53
  Q 65.14 42.32 63.48 41.97"
/>
<path stroke="#848286" vector-effect="non-scaling-stroke" d="
  M 69.72 42.04
  Q 69.86 42.70 69.73 43.22
  Q 69.62 43.65 69.23 43.44
  L 67.98 42.76
  A 0.98 0.97 -89.2 0 0 66.65 44.06
  L 67.25 45.23"
/>
<path stroke="#848286" vector-effect="non-scaling-stroke" d="
  M 64.81 48.03
  Q 64.75 46.98 64.24 46.27
  A 0.76 0.76 0.0 0 0 62.90 46.47
  Q 62.37 48.00 62.87 50.21"
/>
<path stroke="#98999b" vector-effect="non-scaling-stroke" d="
  M 57.39 49.24
  Q 57.37 50.12 57.70 50.58
  Q 58.03 51.03 58.56 50.86
  Q 60.73 50.15 59.67 47.50"
/>
<path stroke="#67676b" vector-effect="non-scaling-stroke" d="
  M 59.67 47.50
  Q 59.93 46.98 59.43 46.53
  A 0.41 0.41 0.0 0 0 58.77 46.68
  L 58.47 47.45"
/>
<path stroke="#98999b" vector-effect="non-scaling-stroke" d="
  M 58.47 47.45
  L 57.22 48.88"
/>
<path stroke="#848286" vector-effect="non-scaling-stroke" d="
  M 57.06 45.81
  L 58.35 45.43
  A 0.97 0.96 -51.1 0 0 58.15 43.54
  L 56.47 43.42"
/>
<path stroke="#494233" vector-effect="non-scaling-stroke" d="
  M 56.47 43.42
  L 58.27 42.84"
/>
<path stroke="#848286" vector-effect="non-scaling-stroke" d="
  M 62.07 41.70
  Q 61.03 42.40 61.92 43.82
  A 0.86 0.86 0.0 0 0 63.51 43.35
  L 63.48 41.97"
/>
<path stroke="#756b5f" vector-effect="non-scaling-stroke" d="
  M 56.47 43.42
  Q 55.96 43.77 55.97 44.24"
/>
<path stroke="#a7a7ab" vector-effect="non-scaling-stroke" d="
  M 59.67 47.50
  L 58.47 47.45"
/>
<path stroke="#59565a" vector-effect="non-scaling-stroke" d="
  M 52.14 44.84
  L 52.14 46.38
  A 0.27 0.27 0.0 0 0 52.41 46.65
  L 52.60 46.65
  A 2.60 0.93 0.1 0 0 55.20 45.72
  L 55.20 45.50
  A 2.60 0.93 0.1 0 0 52.60 44.57
  L 52.41 44.57
  A 0.27 0.27 0.0 0 0 52.14 44.84"
/>
<path stroke="#59565a" vector-effect="non-scaling-stroke" d="
  M 41.97 47.97
  C 42.39 50.42 45.08 49.89 45.04 48.32"
/>
<path stroke="#1e1607" vector-effect="non-scaling-stroke" d="
  M 45.04 48.32
  Q 45.14 48.19 45.51 48.23"
/>
<path stroke="#59565a" vector-effect="non-scaling-stroke" d="
  M 45.51 48.23
  Q 47.05 48.82 46.70 50.49"
/>
<path stroke="#3c3b3e" vector-effect="non-scaling-stroke" d="
  M 46.70 50.49
  Q 46.14 50.81 45.47 50.50
  Q 45.03 50.30 44.56 50.34
  Q 42.87 50.49 43.03 51.67"
/>
<path stroke="#1e1607" vector-effect="non-scaling-stroke" d="
  M 43.03 51.67
  Q 42.84 52.38 42.23 52.21"
/>
<path stroke="#3c3b3e" vector-effect="non-scaling-stroke" d="
  M 42.23 52.21
  Q 41.51 51.41 41.48 50.50"
/>
<path stroke="#59565a" vector-effect="non-scaling-stroke" d="
  M 41.48 50.50
  C 41.21 46.10 33.29 49.86 30.93 50.62
  Q 30.46 50.78 30.25 51.23
  Q 29.77 52.25 29.99 53.23"
/>
<path stroke="#3c3b3e" vector-effect="non-scaling-stroke" d="
  M 29.99 53.23
  Q 30.32 54.07 30.68 54.23"
/>
<path stroke="#6d6d6e" vector-effect="non-scaling-stroke" d="
  M 30.68 54.23
  L 33.99 58.28"
/>
<path stroke="#3c3b3e" vector-effect="non-scaling-stroke" d="
  M 33.99 58.28
  Q 37.53 58.63 42.04 56.34"
/>
<path stroke="#1e1607" vector-effect="non-scaling-stroke" d="
  M 42.04 56.34
  L 42.96 56.69"
/>
<path stroke="#3c3b3e" vector-effect="non-scaling-stroke" d="
  M 42.96 56.69
  Q 45.86 56.25 48.37 54.69"
/>
<path stroke="#818080" vector-effect="non-scaling-stroke" d="
  M 48.37 54.69
  Q 48.37 52.09 47.38 50.00"
/>
<path stroke="#59565a" vector-effect="non-scaling-stroke" d="
  M 47.38 50.00
  Q 47.46 47.33 45.75 45.60"
/>
<path stroke="#1e1607" vector-effect="non-scaling-stroke" d="
  M 45.75 45.60
  Q 43.11 45.34 40.96 46.54
  Q 40.49 46.80 40.84 47.21
  Q 41.29 47.75 41.97 47.97"
/>
<path stroke="#756b5f" vector-effect="non-scaling-stroke" d="
  M 45.75 45.60
  Q 44.47 46.73 45.51 48.23"
/>
<path stroke="#756b5f" vector-effect="non-scaling-stroke" d="
  M 45.04 48.32
  C 44.24 46.85 42.79 46.48 41.97 47.97"
/>
<path stroke="#d8d5d9" vector-effect="non-scaling-stroke" d="
  M 47.38 50.00
  Q 46.78 50.45 47.07 50.98"
/>
<path stroke="#939097" vector-effect="non-scaling-stroke" d="
  M 47.07 50.98
  Q 46.74 51.11 46.70 50.49"
/>
<path stroke="#bbbabd" vector-effect="non-scaling-stroke" d="
  M 48.37 54.69
  Q 46.44 54.04 47.07 50.98"
/>
<path stroke="#585044" vector-effect="non-scaling-stroke" d="
  M 42.96 56.69
  Q 43.60 55.45 43.54 54.48"
/>
<path stroke="#bbbabd" vector-effect="non-scaling-stroke" d="
  M 43.54 54.48
  L 43.72 54.72
  Q 43.97 55.06 44.36 54.91
  Q 45.82 54.33 45.88 52.93
  A 1.01 1.00 -9.1 0 0 44.52 51.95
  L 43.52 52.33"
/>
<path stroke="#585044" vector-effect="non-scaling-stroke" d="
  M 43.52 52.33
  L 43.03 51.67"
/>
<path stroke="#585044" vector-effect="non-scaling-stroke" d="
  M 42.04 56.34
  L 41.80 55.73"
/>
<path stroke="#898274" vector-effect="non-scaling-stroke" d="
  M 41.80 55.73
  Q 43.24 54.96 42.23 52.21"
/>
<path stroke="#9c9586" vector-effect="non-scaling-stroke" d="
  M 43.54 54.48
  L 43.52 52.33"
/>
<path stroke="#a7a7ab" vector-effect="non-scaling-stroke" d="
  M 42.23 52.21
  Q 39.41 53.84 35.86 53.48
  A 1.60 1.55 -56.2 0 0 34.88 53.69
  Q 33.01 54.79 30.68 54.23"
/>
<path stroke="#a7a7ab" vector-effect="non-scaling-stroke" d="
  M 41.80 55.73
  Q 37.48 55.86 33.99 58.28"
/>
<path stroke="#939097" vector-effect="non-scaling-stroke" d="
  M 41.48 50.50
  Q 40.79 50.59 40.26 50.42
  Q 39.80 50.26 39.33 50.40
  L 29.99 53.23"
/>
<path stroke="#818080" vector-effect="non-scaling-stroke" d="
  M 53.20 51.38
  Q 53.23 52.11 53.80 52.65
  Q 54.13 52.97 54.42 52.60
  Q 55.52 51.16 55.78 49.38
  Q 55.85 48.93 55.39 48.89
  L 53.49 48.75
  Q 52.87 48.71 52.75 49.32
  Q 52.62 50.02 52.98 50.64
  Q 53.18 50.98 53.20 51.38"
/>
<path stroke="#4e4209" vector-effect="non-scaling-stroke" d="
  M 15.36 55.60
  L 10.51 56.18
  Q 9.87 56.26 9.96 56.89
  L 10.16 58.20
  Q 10.28 59.02 11.01 58.64
  L 15.08 56.56"
/>
<path stroke="#59565a" vector-effect="non-scaling-stroke" d="
  M 15.08 56.56
  Q 18.30 57.17 20.40 55.60
  A 0.89 0.88 24.1 0 0 19.79 54.01
  Q 16.91 54.27 15.36 55.60"
/>
<path stroke="#a59761" vector-effect="non-scaling-stroke" d="
  M 15.08 56.56
  Q 15.54 56.01 15.36 55.60"
/>
<path stroke="#2d2d2e" vector-effect="non-scaling-stroke" d="
  M 24.91 60.52
  Q 23.99 61.74 24.17 62.58
  Q 24.28 63.10 24.81 63.10
  Q 25.64 63.11 26.46 62.53"
/>
<path stroke="#59565a" vector-effect="non-scaling-stroke" d="
  M 26.46 62.53
  Q 27.25 62.63 27.67 62.42
  Q 28.31 62.11 27.76 61.66
  L 26.05 60.25"
/>
<path stroke="#818080" vector-effect="non-scaling-stroke" d="
  M 26.05 60.25
  L 23.09 57.28
  A 0.31 0.30 27.7 0 0 22.57 57.44
  Q 22.03 60.47 24.91 60.52"
/>
<path stroke="#d8d5d9" vector-effect="non-scaling-stroke" d="
  M 26.05 60.25
  Q 25.98 60.53 25.47 60.55"
/>
<path stroke="#acacad" vector-effect="non-scaling-stroke" d="
  M 25.47 60.55
  Q 25.05 60.45 24.91 60.52"
/>
<path stroke="#848286" vector-effect="non-scaling-stroke" d="
  M 26.46 62.53
  Q 26.41 61.47 25.47 60.55"
/>
<path stroke="#4e4209" vector-effect="non-scaling-stroke" d="
  M 16.50 60.03
  Q 13.89 59.00 11.45 60.71
  Q 11.03 61.00 11.04 61.51
  Q 11.05 62.83 12.40 63.70"
/>
<path stroke="#2d2d2e" vector-effect="non-scaling-stroke" d="
  M 12.40 63.70
  C 13.63 66.42 16.38 65.46 16.96 63.51
  A 0.37 0.37 0.0 0 1 17.31 63.25
  L 17.75 63.25
  Q 18.21 63.25 18.12 63.71
  C 17.56 66.47 21.99 64.80 22.98 63.83
  Q 23.37 63.45 22.86 63.25
  Q 21.48 62.71 21.45 61.32"
/>
<path stroke="#6d6d6e" vector-effect="non-scaling-stroke" d="
  M 21.45 61.32
  Q 22.13 59.78 21.34 58.72
  Q 21.04 58.32 20.54 58.31
  C 19.00 58.30 16.09 58.09 16.50 60.03"
/>
<path stroke="#98999b" vector-effect="non-scaling-stroke" d="
  M 21.45 61.32
  L 17.25 62.05"
/>
<path stroke="#b9ad76" vector-effect="non-scaling-stroke" d="
  M 17.25 62.05
  L 16.50 60.03"
/>
<path stroke="#796e35" vector-effect="non-scaling-stroke" d="
  M 17.25 62.05
  L 12.40 63.70"
/>
<path stroke="#9d9981" vector-effect="non-scaling-stroke" d="
  M 73.01 29.45
  Q 72.90 30.76 74.53 30.78
  A 0.48 0.47 -4.9 0 0 75.01 30.22
  Q 74.84 29.29 73.76 28.95
  Q 73.07 28.74 73.01 29.45"
/>
<path stroke="#848286" vector-effect="non-scaling-stroke" d="
  M 60.28 44.80
  A 0.60 0.60 0.0 0 0 61.41 44.42
  Q 61.22 43.50 60.70 42.78
  A 0.63 0.62 -75.3 0 0 59.63 43.41
  L 60.28 44.80"
/>
<path stroke="#848286" vector-effect="non-scaling-stroke" d="
  M 61.5817 49.9486
  A 2.34 0.78 88.0 0 0 62.2795 47.5828
  A 2.34 0.78 88.0 0 0 61.4183 45.2714
  A 2.34 0.78 88.0 0 0 60.7205 47.6372
  A 2.34 0.78 88.0 0 0 61.5817 49.9486"
/>
<path stroke="#62553a" vector-effect="non-scaling-stroke" d="
  M 78.1450 77.9303
  A 7.10 4.13 70.2 0 0 79.6258 69.8510
  A 7.10 4.13 70.2 0 0 73.3350 64.5697
  A 7.10 4.13 70.2 0 0 71.8542 72.6490
  A 7.10 4.13 70.2 0 0 78.1450 77.9303"
/>
<path stroke="#813f01" vector-effect="non-scaling-stroke" d="
  M 62.6566 73.4915
  A 0.29 0.29 0.0 0 0 62.2677 73.3614
  L 61.7128 73.6380
  A 0.29 0.29 0.0 0 0 61.5827 74.0269
  L 65.1434 81.1685
  A 0.29 0.29 0.0 0 0 65.5323 81.2986
  L 66.0872 81.0220
  A 0.29 0.29 0.0 0 0 66.2173 80.6331
  L 62.6566 73.4915"
/>
<path stroke="#62553a" vector-effect="non-scaling-stroke" d="
  M 77.6945 76.6877
  A 5.51 2.38 70.0 0 0 78.0465 70.6960
  A 5.51 2.38 70.0 0 0 73.9255 66.3323
  A 5.51 2.38 70.0 0 0 73.5735 72.3240
  A 5.51 2.38 70.0 0 0 77.6945 76.6877"
/>
<path stroke="#813f01" vector-effect="non-scaling-stroke" d="
  M 77.0036 75.1836
  A 3.91 1.04 71.3 0 0 76.7351 71.1466
  A 3.91 1.04 71.3 0 0 74.4964 67.7764
  A 3.91 1.04 71.3 0 0 74.7649 71.8134
  A 3.91 1.04 71.3 0 0 77.0036 75.1836"
/>
<path stroke="#62553a" vector-effect="non-scaling-stroke" d="
  M 64.28 68.82
  L 67.55 78.61
  A 0.12 0.12 0.0 0 0 67.71 78.69
  L 67.73 78.68
  A 5.16 3.62 71.5 0 0 69.52 72.64
  L 69.44 72.41
  A 5.16 3.62 71.5 0 0 64.37 68.66
  L 64.36 68.67
  A 0.12 0.12 0.0 0 0 64.28 68.82"
/>
<path stroke="#62553a" vector-effect="non-scaling-stroke" d="
  M 58.21 76.05
  A 0.63 0.63 0.0 0 0 59.27 75.39
  L 58.06 73.17
  Q 57.86 72.80 57.76 73.21
  Q 57.37 74.85 58.21 76.05"
/>
<path stroke="#62553a" vector-effect="non-scaling-stroke" d="
  M 51.31 73.35
  L 49.29 73.29
  A 0.67 0.67 0.0 0 0 48.60 73.94
  L 48.59 74.11
  A 4.00 1.57 -88.1 0 0 50.03 78.16
  L 50.25 78.16
  A 4.00 1.57 -88.1 0 0 51.95 74.22
  L 51.96 74.05
  A 0.67 0.67 0.0 0 0 51.31 73.35"
/>
<path stroke="#8d8166" vector-effect="non-scaling-stroke" d="
  M 42.11 78.52
  L 42.29 80.69
  A 0.89 0.85 -50.5 0 0 44.02 80.49
  Q 43.91 78.87 42.58 78.21
  A 0.32 0.32 0.0 0 0 42.11 78.52"
/>
<path stroke="#813f01" vector-effect="non-scaling-stroke" d="
  M 65.78 70.12
  L 67.86 75.60
  A 0.10 0.10 0.0 0 0 67.99 75.66
  L 68.00 75.65
  A 2.86 1.14 69.3 0 0 68.06 72.58
  L 67.94 72.26
  A 2.86 1.14 69.3 0 0 65.86 69.99
  L 65.84 69.99
  A 0.10 0.10 0.0 0 0 65.78 70.12"
/>
<path stroke="#813f01" vector-effect="non-scaling-stroke" d="
  M 53.62 79.32
  Q 54.69 79.67 54.98 78.50
  Q 55.33 77.07 54.02 77.41
  Q 53.57 77.52 53.25 78.64
  Q 53.11 79.16 53.62 79.32"
/>
<path stroke="#813f01" vector-effect="non-scaling-stroke" d="
  M 49.9013 76.2230
  A 1.02 0.67 112.4 0 0 50.9094 75.5353
  A 1.02 0.67 112.4 0 0 50.6787 74.3370
  A 1.02 0.67 112.4 0 0 49.6706 75.0247
  A 1.02 0.67 112.4 0 0 49.9013 76.2230"
/>
<path stroke="#4e4209" vector-effect="non-scaling-stroke" d="
  M 47.0576 79.9788
  A 1.39 0.48 65.9 0 0 46.9282 78.5140
  A 1.39 0.48 65.9 0 0 45.9224 77.4412
  A 1.39 0.48 65.9 0 0 46.0518 78.9060
  A 1.39 0.48 65.9 0 0 47.0576 79.9788"
/>
<path stroke="#7d6a3f" vector-effect="non-scaling-stroke" d="
  M 36.20 87.06
  C 38.74 86.88 39.07 80.20 38.63 78.49
  Q 38.50 77.97 38.02 77.73
  C 35.03 76.24 28.73 76.69 28.02 81.01
  Q 27.93 81.61 28.44 81.29
  L 30.54 79.96
  Q 31.01 79.66 31.23 80.18
  C 32.76 83.65 33.80 89.31 36.43 91.87
  A 0.31 0.30 -76.4 0 0 36.93 91.56
  L 35.79 87.65
  A 0.46 0.46 0.0 0 1 36.20 87.06"
/>
<path stroke="#7d6a3f" vector-effect="non-scaling-stroke" d="
  M 35.82 78.26
  L 33.27 78.49
  A 0.67 0.67 0.0 0 0 32.70 79.39
  L 35.17 85.90
  A 0.47 0.47 0.0 0 0 36.07 85.86
  L 37.59 80.39
  A 1.69 1.69 0.0 0 0 35.82 78.26"
/>
<path stroke="#9c5407" vector-effect="non-scaling-stroke" d="
  M 34.47 80.82
  Q 34.63 81.75 35.22 82.51
  Q 35.76 83.21 35.96 82.35
  Q 36.34 80.64 35.15 79.46
  A 0.53 0.53 0.0 0 0 34.26 79.74
  Q 34.17 80.23 34.35 80.51
  Q 34.44 80.65 34.47 80.82"
/>
</g>
<path fill="#ffffff" d="
  M 0.00 0.00
  L 50.05 0.00
  Q 26.25 0.65 11.42 18.44
  C -10.07 44.22 0.42 83.03 30.99 96.07
  C 48.32 103.46 69.39 99.64 83.20 86.92
  C 116.51 56.22 96.47 2.35 51.55 0.00
  L 100.00 0.00
  L 100.00 100.00
  L 0.00 100.00
  L 0.00 0.00
  Z"
/>
<path fill="#020101" d="
  M 50.05 0.00
  L 51.55 0.00
  C 96.47 2.35 116.51 56.22 83.20 86.92
  C 69.39 99.64 48.32 103.46 30.99 96.07
  C 0.42 83.03 -10.07 44.22 11.42 18.44
  Q 26.25 0.65 50.05 0.00
  Z
  M 91.16 75.20
  Q 90.59 75.47 91.55 74.06
  Q 91.88 73.77 92.07 73.41
  Q 102.09 53.90 95.53 34.64
  C 87.84 12.05 65.17 -1.56 41.56 2.52
  C 19.35 6.35 2.16 26.13 1.74 48.78
  C 1.26 75.20 21.73 97.00 48.17 97.97
  Q 74.76 98.95 91.16 75.20
  Z"
/>
<path fill="#ff7d01" d="
  M 91.55 74.06
  L 85.97 68.43
  A 1.44 1.38 21.6 0 1 85.57 67.56
  Q 85.36 64.21 86.83 61.22
  A 1.20 1.20 0.0 0 0 86.83 60.16
  C 84.92 56.12 82.03 61.46 81.95 63.38
  A 0.57 0.57 0.0 0 1 80.82 63.44
  Q 80.69 62.52 79.87 62.06
  Q 79.39 61.78 78.97 62.16
  Q 78.08 62.98 77.51 64.30
  L 74.75 63.31
  A 1.41 1.41 0.0 0 0 73.84 63.28
  Q 70.92 64.17 70.22 67.26
  A 0.46 0.45 -64.8 0 1 69.50 67.52
  C 65.53 64.52 62.66 67.18 59.78 69.79
  Q 59.32 70.21 59.06 69.65
  L 58.72 68.90
  Q 58.49 68.42 57.97 68.31
  Q 54.90 67.67 54.13 70.74
  A 0.53 0.53 0.0 0 0 54.82 71.36
  L 55.23 71.22
  Q 55.15 72.05 55.41 71.73
  L 54.57 71.75
  A 2.33 2.32 56.9 0 1 53.54 71.53
  Q 48.32 68.96 44.63 73.58
  Q 44.13 74.21 43.49 73.72
  L 42.30 72.80
  Q 41.92 72.51 41.47 72.66
  C 39.23 73.38 39.19 77.01 38.59 76.85
  Q 30.17 73.03 26.38 81.60
  A 1.08 1.07 -4.9 0 0 27.96 82.93
  L 29.71 81.77
  A 0.61 0.60 58.5 0 1 30.57 81.98
  Q 32.56 85.53 33.17 89.53
  A 1.90 1.86 19.4 0 0 33.65 90.51
  L 37.00 94.10
  A 0.99 0.99 0.0 0 0 38.66 93.11
  L 37.12 88.65
  Q 36.93 88.08 37.27 87.59
  L 39.31 84.68
  A 0.37 0.37 0.0 0 1 39.98 84.90
  Q 39.89 87.99 42.28 89.91
  A 0.92 0.92 0.0 0 0 43.77 89.05
  L 43.16 85.10
  A 0.95 0.95 0.0 0 1 44.94 84.52
  Q 46.38 87.35 49.03 89.05
  Q 49.49 89.35 49.88 88.96
  Q 50.61 88.22 49.94 86.55
  Q 50.49 86.28 50.80 85.74
  L 51.99 86.45
  Q 51.14 88.38 53.39 87.91
  Q 53.90 87.81 53.70 87.32
  L 52.18 83.62
  A 0.44 0.44 0.0 0 1 52.62 83.01
  Q 55.49 83.21 57.71 84.95
  Q 58.18 85.32 58.64 84.93
  L 61.40 82.62
  A 0.67 0.67 0.0 0 1 62.34 82.68
  L 64.25 84.82
  Q 64.59 85.20 65.06 84.99
  Q 70.66 82.53 71.79 76.50
  A 0.42 0.42 0.0 0 1 72.53 76.32
  Q 76.73 81.59 81.05 76.40
  Q 81.39 75.99 81.61 76.48
  L 82.79 79.07
  A 0.68 0.68 0.0 0 0 83.75 79.37
  Q 84.21 79.09 84.35 78.43
  Q 84.96 75.70 84.54 73.10
  A 0.45 0.45 0.0 0 1 85.25 72.66
  Q 87.41 74.21 91.16 75.20
  Q 74.76 98.95 48.17 97.97
  C 21.73 97.00 1.26 75.20 1.74 48.78
  C 2.16 26.13 19.35 6.35 41.56 2.52
  C 65.17 -1.56 87.84 12.05 95.53 34.64
  Q 102.09 53.90 92.07 73.41
  Q 91.88 73.77 91.55 74.06
  Z
  M 61.59 52.96
  Q 65.81 51.53 67.78 47.43
  Q 67.88 47.20 68.13 47.23
  Q 68.31 47.26 68.50 47.23
  Q 69.04 47.17 68.74 47.62
  C 66.70 50.73 70.51 54.56 73.22 52.57
  Q 73.66 52.25 74.07 52.60
  Q 79.86 57.54 86.44 52.95
  C 89.79 50.60 88.67 48.27 87.73 44.99
  Q 87.58 44.49 87.96 44.11
  C 91.32 40.78 88.60 36.97 85.43 34.93
  Q 84.98 34.64 84.80 34.14
  Q 84.56 33.52 85.08 32.97
  A 2.67 2.07 29.8 0 0 83.59 29.34
  C 77.61 26.94 77.41 19.82 69.45 20.78
  A 1.20 1.19 -86.6 0 1 68.15 19.31
  C 69.73 12.66 60.81 9.59 56.92 6.66
  Q 55.23 5.39 53.37 4.37
  C 46.11 0.39 37.56 6.88 34.85 13.42
  C 34.18 15.01 34.67 16.90 34.77 18.62
  Q 34.80 19.13 34.42 19.47
  C 31.16 22.41 33.45 24.33 33.78 27.75
  A 0.50 0.49 -80.4 0 1 33.08 28.25
  Q 29.68 26.69 27.00 24.08
  C 22.96 20.13 17.28 21.31 13.60 25.09
  C 11.02 27.75 6.01 32.84 7.76 36.73
  C 10.09 41.88 16.84 44.00 17.78 49.24
  A 0.56 0.56 0.0 0 1 17.22 49.89
  Q 14.33 49.83 13.16 52.30
  Q 12.91 52.80 12.36 52.83
  C 9.07 52.99 7.25 54.96 8.11 58.30
  C 9.05 62.00 10.75 70.01 16.66 66.70
  Q 17.09 66.46 17.55 66.63
  C 21.05 67.91 26.16 64.89 29.38 63.56
  A 1.39 1.38 82.5 0 1 31.28 65.02
  Q 31.07 66.61 29.57 67.36
  Q 29.10 67.59 28.58 67.50
  Q 26.08 67.05 24.30 68.70
  A 1.29 1.26 26.1 0 1 23.30 69.03
  Q 21.06 68.76 19.54 70.29
  Q 19.16 70.67 19.25 71.20
  Q 19.51 72.71 17.87 73.14
  Q 17.24 73.31 17.13 73.95
  L 16.82 75.74
  Q 16.51 77.54 17.44 75.97
  Q 19.02 73.28 22.43 73.64
  Q 22.87 73.68 23.18 74.01
  Q 27.02 78.07 30.53 73.82
  Q 30.86 73.41 31.37 73.55
  C 34.82 74.46 37.69 70.17 39.78 67.51
  C 41.67 65.09 38.05 62.53 36.61 60.89
  Q 36.13 60.34 36.83 60.12
  C 40.53 58.95 44.37 58.75 49.10 56.84
  Q 49.73 56.59 49.81 57.26
  Q 50.06 59.27 51.48 60.74
  Q 51.87 61.13 52.36 61.39
  Q 55.30 62.91 57.35 65.48
  A 1.81 1.80 -58.1 0 0 60.52 64.74
  Q 61.76 59.17 61.20 53.55
  Q 61.16 53.11 61.59 52.96
  Z"
/>
<path fill="#020101" d="
  M 61.20 53.55
  Q 61.76 59.17 60.52 64.74
  A 1.81 1.80 -58.1 0 1 57.35 65.48
  Q 55.30 62.91 52.36 61.39
  Q 51.87 61.13 51.48 60.74
  Q 50.06 59.27 49.81 57.26
  Q 49.73 56.59 49.10 56.84
  C 44.37 58.75 40.53 58.95 36.83 60.12
  Q 36.13 60.34 36.61 60.89
  C 38.05 62.53 41.67 65.09 39.78 67.51
  C 37.69 70.17 34.82 74.46 31.37 73.55
  Q 30.86 73.41 30.53 73.82
  Q 27.02 78.07 23.18 74.01
  Q 22.87 73.68 22.43 73.64
  Q 19.02 73.28 17.44 75.97
  Q 16.51 77.54 16.82 75.74
  L 17.13 73.95
  Q 17.24 73.31 17.87 73.14
  Q 19.51 72.71 19.25 71.20
  Q 19.16 70.67 19.54 70.29
  Q 21.06 68.76 23.30 69.03
  A 1.29 1.26 26.1 0 0 24.30 68.70
  Q 26.08 67.05 28.58 67.50
  Q 29.10 67.59 29.57 67.36
  Q 31.07 66.61 31.28 65.02
  A 1.39 1.38 82.5 0 0 29.38 63.56
  C 26.16 64.89 21.05 67.91 17.55 66.63
  Q 17.09 66.46 16.66 66.70
  C 10.75 70.01 9.05 62.00 8.11 58.30
  C 7.25 54.96 9.07 52.99 12.36 52.83
  Q 12.91 52.80 13.16 52.30
  Q 14.33 49.83 17.22 49.89
  A 0.56 0.56 0.0 0 0 17.78 49.24
  C 16.84 44.00 10.09 41.88 7.76 36.73
  C 6.01 32.84 11.02 27.75 13.60 25.09
  C 17.28 21.31 22.96 20.13 27.00 24.08
  Q 29.68 26.69 33.08 28.25
  A 0.50 0.49 -80.4 0 0 33.78 27.75
  C 33.45 24.33 31.16 22.41 34.42 19.47
  Q 34.80 19.13 34.77 18.62
  C 34.67 16.90 34.18 15.01 34.85 13.42
  C 37.56 6.88 46.11 0.39 53.37 4.37
  Q 55.23 5.39 56.92 6.66
  C 60.81 9.59 69.73 12.66 68.15 19.31
  A 1.20 1.19 -86.6 0 0 69.45 20.78
  C 77.41 19.82 77.61 26.94 83.59 29.34
  A 2.67 2.07 29.8 0 1 85.08 32.97
  Q 84.56 33.52 84.80 34.14
  Q 84.98 34.64 85.43 34.93
  C 88.60 36.97 91.32 40.78 87.96 44.11
  Q 87.58 44.49 87.73 44.99
  C 88.67 48.27 89.79 50.60 86.44 52.95
  Q 79.86 57.54 74.07 52.60
  Q 73.66 52.25 73.22 52.57
  C 70.51 54.56 66.70 50.73 68.74 47.62
  Q 69.04 47.17 68.50 47.23
  Q 68.31 47.26 68.13 47.23
  Q 67.88 47.20 67.78 47.43
  Q 65.81 51.53 61.59 52.96
  Q 61.16 53.11 61.20 53.55
  Z
  M 40.15 8.56
  Q 35.74 14.35 38.62 21.51
  A 0.40 0.39 5.3 0 1 38.04 21.99
  L 36.52 21.02
  A 0.50 0.50 0.0 0 0 35.82 21.19
  C 30.63 29.93 45.20 31.59 46.05 38.98
  Q 46.39 41.91 47.07 43.65
  C 48.83 48.20 50.21 57.60 53.95 60.55
  C 56.22 62.33 57.01 63.22 58.47 65.15
  A 0.76 0.75 10.2 0 0 59.71 64.29
  L 58.09 61.72
  L 59.44 62.17
  Q 60.20 62.43 60.22 61.63
  L 60.43 55.04
  Q 60.45 54.42 59.83 54.31
  Q 58.30 54.04 57.01 55.33
  Q 55.10 55.30 55.22 56.53
  A 0.39 0.39 0.0 0 0 55.98 56.59
  Q 56.30 55.40 57.03 56.01
  Q 57.27 56.99 57.01 58.18
  Q 56.89 58.72 57.38 58.99
  Q 59.05 59.89 58.09 61.72
  Q 58.09 60.12 56.03 59.36
  Q 55.53 59.18 55.20 58.76
  Q 52.57 55.36 51.10 51.29
  Q 51.72 50.82 51.46 49.76
  Q 51.75 49.35 51.77 48.78
  A 1.37 1.35 26.2 0 0 51.46 47.89
  C 49.45 45.49 51.12 43.57 51.76 41.21
  Q 51.91 40.67 51.42 40.39
  Q 47.44 38.13 46.08 33.69
  A 0.24 0.23 21.2 0 1 46.51 33.51
  Q 47.45 35.01 49.24 35.24
  A 0.48 0.48 0.0 0 1 49.52 36.05
  Q 48.27 37.33 50.00 38.36
  Q 50.98 38.95 51.43 37.90
  C 53.41 33.36 36.42 27.74 47.88 20.94
  C 47.13 22.18 44.39 25.98 45.66 26.83
  Q 46.12 27.14 46.51 26.74
  L 48.80 24.31
  Q 49.23 23.85 49.86 23.85
  Q 53.21 23.83 56.77 22.57
  Q 58.05 24.65 60.20 26.09
  Q 61.08 26.55 59.85 27.75
  A 0.46 0.46 0.0 0 0 59.99 28.50
  L 61.87 29.30
  Q 62.43 29.53 62.85 29.10
  Q 64.60 27.33 63.57 24.46
  C 70.24 29.43 58.04 31.46 61.60 36.22
  Q 61.44 37.77 62.74 38.52
  A 2.04 2.04 0.0 0 0 65.51 37.82
  Q 66.27 36.58 67.29 35.58
  A 0.62 0.62 0.0 0 1 68.16 36.46
  L 67.41 37.21
  Q 66.96 37.67 67.37 38.17
  L 69.00 40.13
  Q 69.43 40.64 70.00 40.28
  Q 73.42 38.14 72.28 40.40
  Q 72.68 41.47 74.40 42.86
  A 0.47 0.46 51.2 0 1 74.32 43.63
  Q 72.54 44.56 72.75 46.56
  A 0.78 0.78 0.0 0 1 72.24 47.37
  C 67.27 49.19 71.30 53.43 73.58 50.64
  Q 73.97 50.16 74.37 50.62
  Q 77.14 53.82 80.97 52.75
  C 85.93 52.92 89.38 47.31 84.52 44.07
  L 87.81 43.16
  Q 89.10 35.50 79.38 35.07
  A 0.44 0.44 0.0 0 1 79.26 34.22
  L 82.11 33.24
  Q 82.63 33.06 82.77 32.53
  C 83.67 29.10 79.19 29.62 77.91 27.40
  Q 73.78 20.26 67.80 24.52
  Q 67.22 21.76 63.60 19.42
  Q 66.14 19.25 66.26 18.25
  C 66.89 12.89 59.75 9.88 55.74 8.53
  C 53.40 7.74 50.95 9.24 49.08 9.50
  Q 47.04 9.77 44.96 10.00
  A 0.96 0.95 -65.3 0 1 44.32 8.26
  Q 46.88 6.50 49.92 6.08
  A 0.54 0.54 0.0 0 1 50.37 7.01
  Q 49.12 8.21 47.56 7.74
  Q 47.13 7.61 46.69 7.70
  Q 45.96 7.85 45.54 8.41
  A 0.47 0.46 -69.8 0 0 45.88 9.15
  Q 49.62 9.45 52.55 7.35
  A 0.59 0.59 0.0 0 0 52.56 6.40
  C 48.72 3.53 43.46 6.20 40.15 8.56
  Z
  M 43.41 43.10
  Q 43.97 42.53 44.71 42.43
  Q 45.42 42.33 45.01 41.74
  L 43.32 39.37
  L 38.29 36.01
  L 38.18 35.39
  Q 38.90 34.93 38.78 34.25
  L 39.03 34.25
  Q 39.37 34.25 39.61 34.48
  L 43.83 38.43
  A 0.43 0.43 0.0 0 0 44.52 37.93
  Q 42.82 34.39 38.68 33.45
  C 36.04 31.78 36.02 29.37 32.00 30.04
  C 28.59 27.52 25.51 23.55 20.88 23.66
  Q 15.09 23.75 13.12 29.72
  Q 12.98 30.14 12.56 30.28
  C 6.61 32.35 11.19 40.03 14.29 42.35
  Q 17.43 44.70 17.92 45.41
  C 19.12 47.15 19.45 51.87 20.67 52.56
  A 1.47 1.47 0.0 0 0 22.80 50.86
  Q 21.06 45.08 16.61 41.16
  A 0.15 0.15 0.0 0 1 16.80 40.93
  Q 21.40 44.31 23.46 49.61
  Q 23.64 50.09 23.53 50.59
  C 22.09 56.84 27.52 60.36 32.02 63.44
  A 1.72 1.71 36.1 0 1 32.41 65.91
  L 31.19 67.47
  A 0.67 0.67 0.0 0 0 31.90 68.53
  Q 34.23 67.89 34.53 65.44
  A 0.46 0.45 40.2 0 1 35.42 65.37
  C 36.06 67.43 32.46 69.69 30.37 69.04
  C 28.23 68.38 26.00 67.42 24.67 70.05
  Q 24.46 70.46 24.04 70.27
  Q 21.28 69.07 20.14 71.59
  A 0.48 0.48 0.0 0 0 20.77 72.22
  L 21.92 71.71
  Q 22.47 71.47 22.80 71.96
  Q 24.10 73.89 25.82 74.42
  Q 27.91 75.07 28.74 73.31
  Q 28.91 72.96 28.85 72.58
  L 28.77 71.96
  Q 28.68 71.33 29.29 71.49
  L 32.67 72.38
  A 1.11 1.10 28.9 0 0 33.76 72.07
  L 38.18 67.45
  Q 39.61 65.94 38.04 64.59
  Q 34.00 61.10 31.32 57.15
  C 29.40 54.33 23.64 52.79 25.96 48.70
  A 0.25 0.25 0.0 0 1 26.42 48.91
  Q 25.68 51.05 27.20 52.27
  A 0.52 0.52 0.0 0 0 28.02 52.02
  Q 28.59 50.29 28.51 48.48
  Q 28.49 47.96 28.16 47.55
  Q 24.58 43.20 21.45 38.55
  C 19.50 35.64 16.96 33.89 18.53 29.86
  A 2.50 2.49 -62.4 0 1 22.25 28.69
  Q 25.94 31.17 30.36 31.86
  A 0.26 0.26 0.0 0 1 30.41 32.37
  C 28.61 33.02 24.98 30.97 23.45 30.18
  A 2.26 2.26 0.0 0 0 20.17 31.87
  Q 19.81 34.47 21.95 35.90
  Q 22.50 36.26 22.93 35.77
  L 24.68 33.73
  Q 25.02 33.33 25.32 33.76
  C 27.40 36.65 30.54 36.24 33.73 36.40
  Q 34.25 36.43 34.60 36.81
  Q 38.34 40.87 43.41 43.10
  Z
  M 53.30 40.48
  L 59.49 38.89
  Q 60.11 38.73 59.98 38.10
  L 59.02 33.43
  A 0.87 0.85 -29.2 0 1 59.25 32.66
  L 60.67 31.19
  A 0.53 0.53 0.0 0 0 60.53 30.35
  Q 58.45 29.28 58.77 26.91
  Q 58.82 26.50 58.55 26.19
  L 56.68 24.03
  Q 56.29 23.59 55.76 23.81
  C 51.92 25.38 49.47 23.99 47.58 28.85
  A 0.93 0.92 -53.6 0 0 47.71 29.75
  C 50.40 33.18 53.19 34.97 52.55 39.82
  A 0.61 0.60 -3.3 0 0 53.30 40.48
  Z
  M 23.73 37.54
  A 1.58 1.57 49.5 0 0 23.56 39.73
  L 29.96 47.46
  Q 30.23 47.79 30.65 47.71
  Q 35.83 46.72 40.16 43.69
  Q 40.50 43.45 40.19 43.18
  L 33.71 37.56
  Q 33.06 36.99 32.20 37.13
  Q 28.87 37.67 25.78 36.41
  Q 25.25 36.19 24.82 36.57
  L 23.73 37.54
  Z
  M 63.48 41.97
  Q 62.88 41.68 62.07 41.70
  Q 60.16 40.97 58.27 42.84
  L 55.03 42.57
  Q 54.45 42.52 54.73 43.03
  Q 55.14 43.76 55.97 44.24
  Q 56.13 45.29 57.06 45.81
  L 57.22 48.88
  Q 57.77 48.49 57.39 49.24
  L 56.79 52.02
  Q 56.72 52.37 57.06 52.25
  L 62.87 50.21
  L 64.81 48.03
  L 67.25 45.23
  L 70.59 43.92
  A 0.99 0.99 0.0 0 0 71.22 43.06
  Q 71.28 41.71 69.72 42.04
  Q 68.59 41.18 67.12 41.23
  Q 66.63 41.24 66.24 41.53
  Q 65.14 42.32 63.48 41.97
  Z
  M 52.14 44.84
  L 52.14 46.38
  A 0.27 0.27 0.0 0 0 52.41 46.65
  L 52.60 46.65
  A 2.60 0.93 0.1 0 0 55.20 45.72
  L 55.20 45.50
  A 2.60 0.93 0.1 0 0 52.60 44.57
  L 52.41 44.57
  A 0.27 0.27 0.0 0 0 52.14 44.84
  Z
  M 41.97 47.97
  C 42.39 50.42 45.08 49.89 45.04 48.32
  Q 45.14 48.19 45.51 48.23
  Q 47.05 48.82 46.70 50.49
  Q 46.14 50.81 45.47 50.50
  Q 45.03 50.30 44.56 50.34
  Q 42.87 50.49 43.03 51.67
  Q 42.84 52.38 42.23 52.21
  Q 41.51 51.41 41.48 50.50
  C 41.21 46.10 33.29 49.86 30.93 50.62
  Q 30.46 50.78 30.25 51.23
  Q 29.77 52.25 29.99 53.23
  Q 30.32 54.07 30.68 54.23
  L 33.99 58.28
  Q 37.53 58.63 42.04 56.34
  L 42.96 56.69
  Q 45.86 56.25 48.37 54.69
  Q 48.37 52.09 47.38 50.00
  Q 47.46 47.33 45.75 45.60
  Q 43.11 45.34 40.96 46.54
  Q 40.49 46.80 40.84 47.21
  Q 41.29 47.75 41.97 47.97
  Z
  M 53.20 51.38
  Q 53.23 52.11 53.80 52.65
  Q 54.13 52.97 54.42 52.60
  Q 55.52 51.16 55.78 49.38
  Q 55.85 48.93 55.39 48.89
  L 53.49 48.75
  Q 52.87 48.71 52.75 49.32
  Q 52.62 50.02 52.98 50.64
  Q 53.18 50.98 53.20 51.38
  Z
  M 15.36 55.60
  L 10.51 56.18
  Q 9.87 56.26 9.96 56.89
  L 10.16 58.20
  Q 10.28 59.02 11.01 58.64
  L 15.08 56.56
  Q 18.30 57.17 20.40 55.60
  A 0.89 0.88 24.1 0 0 19.79 54.01
  Q 16.91 54.27 15.36 55.60
  Z
  M 24.91 60.52
  Q 23.99 61.74 24.17 62.58
  Q 24.28 63.10 24.81 63.10
  Q 25.64 63.11 26.46 62.53
  Q 27.25 62.63 27.67 62.42
  Q 28.31 62.11 27.76 61.66
  L 26.05 60.25
  L 23.09 57.28
  A 0.31 0.30 27.7 0 0 22.57 57.44
  Q 22.03 60.47 24.91 60.52
  Z
  M 16.50 60.03
  Q 13.89 59.00 11.45 60.71
  Q 11.03 61.00 11.04 61.51
  Q 11.05 62.83 12.40 63.70
  C 13.63 66.42 16.38 65.46 16.96 63.51
  A 0.37 0.37 0.0 0 1 17.31 63.25
  L 17.75 63.25
  Q 18.21 63.25 18.12 63.71
  C 17.56 66.47 21.99 64.80 22.98 63.83
  Q 23.37 63.45 22.86 63.25
  Q 21.48 62.71 21.45 61.32
  Q 22.13 59.78 21.34 58.72
  Q 21.04 58.32 20.54 58.31
  C 19.00 58.30 16.09 58.09 16.50 60.03
  Z"
/>
<path fill="#beb788" d="
  M 63.60 19.42
  Q 64.00 19.26 64.41 19.11
  C 65.31 13.50 60.42 13.95 56.72 13.28
  Q 56.20 13.19 55.70 13.38
  Q 53.29 14.34 51.40 12.73
  Q 51.05 12.44 50.59 12.45
  Q 45.98 12.63 43.01 16.89
  C 41.88 14.30 43.62 13.38 42.78 11.72
  Q 42.14 10.47 40.15 8.56
  C 43.46 6.20 48.72 3.53 52.56 6.40
  A 0.59 0.59 0.0 0 1 52.55 7.35
  Q 49.62 9.45 45.88 9.15
  A 0.47 0.46 -69.8 0 1 45.54 8.41
  Q 45.96 7.85 46.69 7.70
  Q 47.13 7.61 47.56 7.74
  Q 49.12 8.21 50.37 7.01
  A 0.54 0.54 0.0 0 0 49.92 6.08
  Q 46.88 6.50 44.32 8.26
  A 0.96 0.95 -65.3 0 0 44.96 10.00
  Q 47.04 9.77 49.08 9.50
  C 50.95 9.24 53.40 7.74 55.74 8.53
  C 59.75 9.88 66.89 12.89 66.26 18.25
  Q 66.14 19.25 63.60 19.42
  Z"
/>
<path fill="#e1d9a8" d="
  M 40.15 8.56
  Q 42.14 10.47 42.78 11.72
  C 43.62 13.38 41.88 14.30 43.01 16.89
  Q 45.93 14.15 48.53 13.50
  Q 49.65 13.22 52.43 14.03
  Q 55.17 14.83 58.01 14.24
  A 1.73 1.71 49.4 0 1 58.97 14.32
  Q 62.29 15.66 64.41 19.11
  Q 64.00 19.26 63.60 19.42
  Q 67.22 21.76 67.80 24.52
  C 67.60 26.20 68.63 26.64 70.12 26.34
  Q 74.84 25.38 77.00 29.76
  Q 77.24 30.26 77.00 30.75
  C 74.89 35.10 78.61 36.95 82.20 37.06
  Q 82.73 37.08 83.07 37.49
  L 87.81 43.16
  L 84.52 44.07
  Q 83.54 44.20 83.47 45.00
  Q 83.43 45.53 83.87 45.82
  C 86.78 47.70 82.75 51.52 80.97 52.75
  Q 77.14 53.82 74.37 50.62
  Q 73.97 50.16 73.58 50.64
  C 71.30 53.43 67.27 49.19 72.24 47.37
  A 0.78 0.78 0.0 0 0 72.75 46.56
  Q 72.54 44.56 74.32 43.63
  A 0.47 0.46 51.2 0 0 74.40 42.86
  Q 72.68 41.47 72.28 40.40
  Q 73.04 38.81 72.93 37.01
  Q 72.91 36.58 72.55 36.35
  L 67.60 33.02
  Q 67.17 32.72 66.89 33.17
  Q 64.84 36.51 61.60 36.22
  C 58.04 31.46 70.24 29.43 63.57 24.46
  C 62.38 23.50 60.39 21.24 58.81 21.51
  Q 58.27 21.60 58.70 21.94
  L 61.43 24.11
  Q 61.96 24.54 61.70 25.17
  Q 61.40 25.86 60.20 26.09
  Q 58.05 24.65 56.77 22.57
  Q 52.15 19.61 47.88 20.94
  C 36.42 27.74 53.41 33.36 51.43 37.90
  Q 50.98 38.95 50.00 38.36
  Q 48.27 37.33 49.52 36.05
  A 0.48 0.48 0.0 0 0 49.24 35.24
  Q 47.45 35.01 46.51 33.51
  A 0.24 0.23 21.2 0 0 46.08 33.69
  Q 47.44 38.13 51.42 40.39
  Q 51.91 40.67 51.76 41.21
  C 51.12 43.57 49.45 45.49 51.46 47.89
  A 1.37 1.35 26.2 0 1 51.77 48.78
  Q 51.75 49.35 51.46 49.76
  L 50.87 50.00
  Q 50.24 50.25 50.67 50.77
  L 51.10 51.29
  Q 52.57 55.36 55.20 58.76
  Q 55.53 59.18 56.03 59.36
  Q 58.09 60.12 58.09 61.72
  L 59.71 64.29
  A 0.76 0.75 10.2 0 1 58.47 65.15
  C 57.01 63.22 56.22 62.33 53.95 60.55
  C 50.21 57.60 48.83 48.20 47.07 43.65
  Q 46.39 41.91 46.05 38.98
  C 45.20 31.59 30.63 29.93 35.82 21.19
  A 0.50 0.50 0.0 0 1 36.52 21.02
  L 38.04 21.99
  A 0.40 0.39 5.3 0 0 38.62 21.51
  Q 35.74 14.35 40.15 8.56
  Z
  M 73.01 29.45
  Q 72.90 30.76 74.53 30.78
  A 0.48 0.47 -4.9 0 0 75.01 30.22
  Q 74.84 29.29 73.76 28.95
  Q 73.07 28.74 73.01 29.45
  Z"
/>
<path fill="#020101" d="
  M 64.41 19.11
  Q 62.29 15.66 58.97 14.32
  A 1.73 1.71 49.4 0 0 58.01 14.24
  Q 55.17 14.83 52.43 14.03
  Q 49.65 13.22 48.53 13.50
  Q 45.93 14.15 43.01 16.89
  Q 45.98 12.63 50.59 12.45
  Q 51.05 12.44 51.40 12.73
  Q 53.29 14.34 55.70 13.38
  Q 56.20 13.19 56.72 13.28
  C 60.42 13.95 65.31 13.50 64.41 19.11
  Z"
/>
<path fill="#beb788" d="
  M 56.77 22.57
  Q 53.21 23.83 49.86 23.85
  Q 49.23 23.85 48.80 24.31
  L 46.51 26.74
  Q 46.12 27.14 45.66 26.83
  C 44.39 25.98 47.13 22.18 47.88 20.94
  Q 52.15 19.61 56.77 22.57
  Z"
/>
<path fill="#beb788" d="
  M 63.57 24.46
  Q 64.60 27.33 62.85 29.10
  Q 62.43 29.53 61.87 29.30
  L 59.99 28.50
  A 0.46 0.46 0.0 0 1 59.85 27.75
  Q 61.08 26.55 60.20 26.09
  Q 61.40 25.86 61.70 25.17
  Q 61.96 24.54 61.43 24.11
  L 58.70 21.94
  Q 58.27 21.60 58.81 21.51
  C 60.39 21.24 62.38 23.50 63.57 24.46
  Z"
/>
<path fill="#beb788" d="
  M 87.81 43.16
  L 83.07 37.49
  Q 82.73 37.08 82.20 37.06
  C 78.61 36.95 74.89 35.10 77.00 30.75
  Q 77.24 30.26 77.00 29.76
  Q 74.84 25.38 70.12 26.34
  C 68.63 26.64 67.60 26.20 67.80 24.52
  Q 73.78 20.26 77.91 27.40
  C 79.19 29.62 83.67 29.10 82.77 32.53
  Q 82.63 33.06 82.11 33.24
  L 79.26 34.22
  A 0.44 0.44 0.0 0 0 79.38 35.07
  Q 89.10 35.50 87.81 43.16
  Z"
/>
<path fill="#e1d9a8" d="
  M 20.88 23.66
  C 24.40 26.36 26.81 30.07 32.00 30.04
  C 36.02 29.37 36.04 31.78 38.68 33.45
  L 38.78 34.25
  Q 38.90 34.93 38.18 35.39
  L 35.75 33.74
  Q 35.03 33.26 35.38 34.05
  Q 36.07 35.62 38.29 36.01
  L 43.32 39.37
  Q 43.31 40.23 42.42 40.29
  Q 41.85 40.32 42.22 40.76
  Q 43.02 41.69 43.41 43.10
  Q 38.34 40.87 34.60 36.81
  Q 34.25 36.43 33.73 36.40
  C 30.54 36.24 27.40 36.65 25.32 33.76
  Q 25.02 33.33 24.68 33.73
  L 22.93 35.77
  Q 22.50 36.26 21.95 35.90
  Q 19.81 34.47 20.17 31.87
  A 2.26 2.26 0.0 0 1 23.45 30.18
  C 24.98 30.97 28.61 33.02 30.41 32.37
  A 0.26 0.26 0.0 0 0 30.36 31.86
  Q 25.94 31.17 22.25 28.69
  A 2.50 2.49 -62.4 0 0 18.53 29.86
  C 16.96 33.89 19.50 35.64 21.45 38.55
  Q 24.58 43.20 28.16 47.55
  Q 28.49 47.96 28.51 48.48
  Q 28.59 50.29 28.02 52.02
  A 0.52 0.52 0.0 0 1 27.20 52.27
  Q 25.68 51.05 26.42 48.91
  A 0.25 0.25 0.0 0 0 25.96 48.70
  C 23.64 52.79 29.40 54.33 31.32 57.15
  Q 34.00 61.10 38.04 64.59
  Q 39.61 65.94 38.18 67.45
  L 33.76 72.07
  A 1.11 1.10 28.9 0 1 32.67 72.38
  L 29.29 71.49
  Q 28.68 71.33 28.77 71.96
  L 28.85 72.58
  Q 28.91 72.96 28.74 73.31
  Q 27.91 75.07 25.82 74.42
  Q 24.10 73.89 22.80 71.96
  Q 22.47 71.47 21.92 71.71
  L 20.77 72.22
  A 0.48 0.48 0.0 0 1 20.14 71.59
  Q 21.28 69.07 24.04 70.27
  Q 24.46 70.46 24.67 70.05
  C 26.00 67.42 28.23 68.38 30.37 69.04
  C 32.46 69.69 36.06 67.43 35.42 65.37
  A 0.46 0.45 40.2 0 0 34.53 65.44
  Q 34.23 67.89 31.90 68.53
  A 0.67 0.67 0.0 0 1 31.19 67.47
  L 32.41 65.91
  A 1.72 1.71 36.1 0 0 32.02 63.44
  C 27.52 60.36 22.09 56.84 23.53 50.59
  Q 23.64 50.09 23.46 49.61
  Q 21.40 44.31 16.80 40.93
  A 0.15 0.15 0.0 0 0 16.61 41.16
  Q 21.06 45.08 22.80 50.86
  A 1.47 1.47 0.0 0 1 20.67 52.56
  C 19.45 51.87 19.12 47.15 17.92 45.41
  Q 17.43 44.70 14.29 42.35
  C 11.19 40.03 6.61 32.35 12.56 30.28
  Q 12.98 30.14 13.12 29.72
  Q 15.09 23.75 20.88 23.66
  Z"
/>
<path fill="#beb788" d="
  M 20.88 23.66
  C 25.51 23.55 28.59 27.52 32.00 30.04
  C 26.81 30.07 24.40 26.36 20.88 23.66
  Z"
/>
<path fill="#ff7d01" d="
  M 53.30 40.48
  A 0.61 0.60 -3.3 0 1 52.55 39.82
  C 53.19 34.97 50.40 33.18 47.71 29.75
  A 0.93 0.92 -53.6 0 1 47.58 28.85
  C 49.47 23.99 51.92 25.38 55.76 23.81
  Q 56.29 23.59 56.68 24.03
  L 58.55 26.19
  Q 58.82 26.50 58.77 26.91
  Q 58.45 29.28 60.53 30.35
  A 0.53 0.53 0.0 0 1 60.67 31.19
  L 59.25 32.66
  A 0.87 0.85 -29.2 0 0 59.02 33.43
  L 59.98 38.10
  Q 60.11 38.73 59.49 38.89
  L 53.30 40.48
  Z"
/>
<path fill="#58595a" d="
  M 73.76 28.95
  Q 74.84 29.29 75.01 30.22
  A 0.48 0.47 -4.9 0 1 74.53 30.78
  Q 72.90 30.76 73.01 29.45
  Q 73.07 28.74 73.76 28.95
  Z"
/>
<path fill="#beb788" d="
  M 72.28 40.40
  Q 73.42 38.14 70.00 40.28
  Q 69.43 40.64 69.00 40.13
  L 67.37 38.17
  Q 66.96 37.67 67.41 37.21
  L 68.16 36.46
  A 0.62 0.62 0.0 0 0 67.29 35.58
  Q 66.27 36.58 65.51 37.82
  A 2.04 2.04 0.0 0 1 62.74 38.52
  Q 61.44 37.77 61.60 36.22
  Q 64.84 36.51 66.89 33.17
  Q 67.17 32.72 67.60 33.02
  L 72.55 36.35
  Q 72.91 36.58 72.93 37.01
  Q 73.04 38.81 72.28 40.40
  Z"
/>
<path fill="#392b0c" d="
  M 38.18 35.39
  L 38.29 36.01
  Q 36.07 35.62 35.38 34.05
  Q 35.03 33.26 35.75 33.74
  L 38.18 35.39
  Z"
/>
<path fill="#ff7d01" d="
  M 38.68 33.45
  Q 42.82 34.39 44.52 37.93
  A 0.43 0.43 0.0 0 1 43.83 38.43
  L 39.61 34.48
  Q 39.37 34.25 39.03 34.25
  L 38.78 34.25
  L 38.68 33.45
  Z"
/>
<path fill="#ff7d01" d="
  M 23.73 37.54
  L 24.82 36.57
  Q 25.25 36.19 25.78 36.41
  Q 28.87 37.67 32.20 37.13
  Q 33.06 36.99 33.71 37.56
  L 40.19 43.18
  Q 40.50 43.45 40.16 43.69
  Q 35.83 46.72 30.65 47.71
  Q 30.23 47.79 29.96 47.46
  L 23.56 39.73
  A 1.58 1.57 49.5 0 1 23.73 37.54
  Z"
/>
<path fill="#b0abb2" d="
  M 43.32 39.37
  L 45.01 41.74
  Q 45.42 42.33 44.71 42.43
  Q 43.97 42.53 43.41 43.10
  Q 43.02 41.69 42.22 40.76
  Q 41.85 40.32 42.42 40.29
  Q 43.31 40.23 43.32 39.37
  Z"
/>
<path fill="#58595a" d="
  M 69.72 42.04
  Q 69.86 42.70 69.73 43.22
  Q 69.62 43.65 69.23 43.44
  L 67.98 42.76
  A 0.98 0.97 -89.2 0 0 66.65 44.06
  L 67.25 45.23
  L 64.81 48.03
  Q 64.75 46.98 64.24 46.27
  A 0.76 0.76 0.0 0 0 62.90 46.47
  Q 62.37 48.00 62.87 50.21
  L 57.06 52.25
  Q 56.72 52.37 56.79 52.02
  L 57.39 49.24
  Q 57.37 50.12 57.70 50.58
  Q 58.03 51.03 58.56 50.86
  Q 60.73 50.15 59.67 47.50
  Q 59.93 46.98 59.43 46.53
  A 0.41 0.41 0.0 0 0 58.77 46.68
  L 58.47 47.45
  L 57.22 48.88
  L 57.06 45.81
  L 58.35 45.43
  A 0.97 0.96 -51.1 0 0 58.15 43.54
  L 56.47 43.42
  L 58.27 42.84
  Q 60.16 40.97 62.07 41.70
  Q 61.03 42.40 61.92 43.82
  A 0.86 0.86 0.0 0 0 63.51 43.35
  L 63.48 41.97
  Q 65.14 42.32 66.24 41.53
  Q 66.63 41.24 67.12 41.23
  Q 68.59 41.18 69.72 42.04
  Z
  M 60.28 44.80
  A 0.60 0.60 0.0 0 0 61.41 44.42
  Q 61.22 43.50 60.70 42.78
  A 0.63 0.62 -75.3 0 0 59.63 43.41
  L 60.28 44.80
  Z
  M 61.5817 49.9486
  A 2.34 0.78 88.0 0 0 62.2795 47.5828
  A 2.34 0.78 88.0 0 0 61.4183 45.2714
  A 2.34 0.78 88.0 0 0 60.7205 47.6372
  A 2.34 0.78 88.0 0 0 61.5817 49.9486
  Z"
/>
<path fill="#b0abb2" d="
  M 62.07 41.70
  Q 62.88 41.68 63.48 41.97
  L 63.51 43.35
  A 0.86 0.86 0.0 0 1 61.92 43.82
  Q 61.03 42.40 62.07 41.70
  Z"
/>
<path fill="#b0abb2" d="
  M 69.72 42.04
  Q 71.28 41.71 71.22 43.06
  A 0.99 0.99 0.0 0 1 70.59 43.92
  L 67.25 45.23
  L 66.65 44.06
  A 0.98 0.97 -89.2 0 1 67.98 42.76
  L 69.23 43.44
  Q 69.62 43.65 69.73 43.22
  Q 69.86 42.70 69.72 42.04
  Z"
/>
<path fill="#392b0c" d="
  M 58.27 42.84
  L 56.47 43.42
  Q 55.96 43.77 55.97 44.24
  Q 55.14 43.76 54.73 43.03
  Q 54.45 42.52 55.03 42.57
  L 58.27 42.84
  Z"
/>
<path fill="#b0abb2" d="
  M 60.28 44.80
  L 59.63 43.41
  A 0.63 0.62 -75.3 0 1 60.70 42.78
  Q 61.22 43.50 61.41 44.42
  A 0.60 0.60 0.0 0 1 60.28 44.80
  Z"
/>
<path fill="#b0abb2" d="
  M 56.47 43.42
  L 58.15 43.54
  A 0.97 0.96 -51.1 0 1 58.35 45.43
  L 57.06 45.81
  Q 56.13 45.29 55.97 44.24
  Q 55.96 43.77 56.47 43.42
  Z"
/>
<path fill="#beb788" d="
  M 84.52 44.07
  C 89.38 47.31 85.93 52.92 80.97 52.75
  C 82.75 51.52 86.78 47.70 83.87 45.82
  Q 83.43 45.53 83.47 45.00
  Q 83.54 44.20 84.52 44.07
  Z"
/>
<path fill="#b0abb2" d="
  M 52.14 44.84
  A 0.27 0.27 0.0 0 1 52.41 44.57
  L 52.60 44.57
  A 2.60 0.93 0.1 0 1 55.20 45.50
  L 55.20 45.72
  A 2.60 0.93 0.1 0 1 52.60 46.65
  L 52.41 46.65
  A 0.27 0.27 0.0 0 1 52.14 46.38
  L 52.14 44.84
  Z"
/>
<ellipse fill="#b0abb2" cx="0.00" cy="0.00" transform="translate(61.50,47.61) rotate(88.0)" rx="2.34" ry="0.78"/>
<path fill="#392b0c" d="
  M 45.75 45.60
  Q 44.47 46.73 45.51 48.23
  Q 45.14 48.19 45.04 48.32
  C 44.24 46.85 42.79 46.48 41.97 47.97
  Q 41.29 47.75 40.84 47.21
  Q 40.49 46.80 40.96 46.54
  Q 43.11 45.34 45.75 45.60
  Z"
/>
<path fill="#b0abb2" d="
  M 45.75 45.60
  Q 47.46 47.33 47.38 50.00
  Q 46.78 50.45 47.07 50.98
  Q 46.74 51.11 46.70 50.49
  Q 47.05 48.82 45.51 48.23
  Q 44.47 46.73 45.75 45.60
  Z"
/>
<path fill="#b0abb2" d="
  M 64.81 48.03
  L 62.87 50.21
  Q 62.37 48.00 62.90 46.47
  A 0.76 0.76 0.0 0 1 64.24 46.27
  Q 64.75 46.98 64.81 48.03
  Z"
/>
<path fill="#76757b" d="
  M 59.67 47.50
  L 58.47 47.45
  L 58.77 46.68
  A 0.41 0.41 0.0 0 1 59.43 46.53
  Q 59.93 46.98 59.67 47.50
  Z"
/>
<path fill="#b0abb2" d="
  M 45.04 48.32
  C 45.08 49.89 42.39 50.42 41.97 47.97
  C 42.79 46.48 44.24 46.85 45.04 48.32
  Z"
/>
<path fill="#d8d8db" d="
  M 58.47 47.45
  L 59.67 47.50
  Q 60.73 50.15 58.56 50.86
  Q 58.03 51.03 57.70 50.58
  Q 57.37 50.12 57.39 49.24
  Q 57.77 48.49 57.22 48.88
  L 58.47 47.45
  Z"
/>
<path fill="#b0abb2" d="
  M 41.48 50.50
  Q 40.79 50.59 40.26 50.42
  Q 39.80 50.26 39.33 50.40
  L 29.99 53.23
  Q 29.77 52.25 30.25 51.23
  Q 30.46 50.78 30.93 50.62
  C 33.29 49.86 41.21 46.10 41.48 50.50
  Z"
/>
<path fill="#ffffff" d="
  M 52.98 50.64
  Q 52.62 50.02 52.75 49.32
  Q 52.87 48.71 53.49 48.75
  L 55.39 48.89
  Q 55.85 48.93 55.78 49.38
  Q 55.52 51.16 54.42 52.60
  Q 54.13 52.97 53.80 52.65
  Q 53.23 52.11 53.20 51.38
  Q 53.18 50.98 52.98 50.64
  Z"
/>
<path fill="#b0abb2" d="
  M 51.46 49.76
  Q 51.72 50.82 51.10 51.29
  L 50.67 50.77
  Q 50.24 50.25 50.87 50.00
  L 51.46 49.76
  Z"
/>
<path fill="#ffffff" d="
  M 47.38 50.00
  Q 48.37 52.09 48.37 54.69
  Q 46.44 54.04 47.07 50.98
  Q 46.78 50.45 47.38 50.00
  Z"
/>
<path fill="#76757b" d="
  M 41.48 50.50
  Q 41.51 51.41 42.23 52.21
  Q 39.41 53.84 35.86 53.48
  A 1.60 1.55 -56.2 0 0 34.88 53.69
  Q 33.01 54.79 30.68 54.23
  Q 30.32 54.07 29.99 53.23
  L 39.33 50.40
  Q 39.80 50.26 40.26 50.42
  Q 40.79 50.59 41.48 50.50
  Z"
/>
<path fill="#76757b" d="
  M 46.70 50.49
  Q 46.74 51.11 47.07 50.98
  Q 46.44 54.04 48.37 54.69
  Q 45.86 56.25 42.96 56.69
  Q 43.60 55.45 43.54 54.48
  L 43.72 54.72
  Q 43.97 55.06 44.36 54.91
  Q 45.82 54.33 45.88 52.93
  A 1.01 1.00 -9.1 0 0 44.52 51.95
  L 43.52 52.33
  L 43.03 51.67
  Q 42.87 50.49 44.56 50.34
  Q 45.03 50.30 45.47 50.50
  Q 46.14 50.81 46.70 50.49
  Z"
/>
<path fill="#ffffff" d="
  M 43.54 54.48
  L 43.52 52.33
  L 44.52 51.95
  A 1.01 1.00 -9.1 0 1 45.88 52.93
  Q 45.82 54.33 44.36 54.91
  Q 43.97 55.06 43.72 54.72
  L 43.54 54.48
  Z"
/>
<path fill="#392b0c" d="
  M 43.03 51.67
  L 43.52 52.33
  L 43.54 54.48
  Q 43.60 55.45 42.96 56.69
  L 42.04 56.34
  L 41.80 55.73
  Q 43.24 54.96 42.23 52.21
  Q 42.84 52.38 43.03 51.67
  Z"
/>
<path fill="#d8d8db" d="
  M 42.23 52.21
  Q 43.24 54.96 41.80 55.73
  Q 37.48 55.86 33.99 58.28
  L 30.68 54.23
  Q 33.01 54.79 34.88 53.69
  A 1.60 1.55 -56.2 0 1 35.86 53.48
  Q 39.41 53.84 42.23 52.21
  Z"
/>
<path fill="#b0abb2" d="
  M 15.08 56.56
  Q 15.54 56.01 15.36 55.60
  Q 16.91 54.27 19.79 54.01
  A 0.89 0.88 24.1 0 1 20.40 55.60
  Q 18.30 57.17 15.08 56.56
  Z"
/>
<path fill="#beb788" d="
  M 58.09 61.72
  Q 59.05 59.89 57.38 58.99
  Q 56.89 58.72 57.01 58.18
  Q 57.27 56.99 57.03 56.01
  L 57.01 55.33
  Q 58.30 54.04 59.83 54.31
  Q 60.45 54.42 60.43 55.04
  L 60.22 61.63
  Q 60.20 62.43 59.44 62.17
  L 58.09 61.72
  Z"
/>
<path fill="#b0abb2" d="
  M 57.01 55.33
  L 57.03 56.01
  Q 56.30 55.40 55.98 56.59
  A 0.39 0.39 0.0 0 1 55.22 56.53
  Q 55.10 55.30 57.01 55.33
  Z"
/>
<path fill="#9a8210" d="
  M 15.36 55.60
  Q 15.54 56.01 15.08 56.56
  L 11.01 58.64
  Q 10.28 59.02 10.16 58.20
  L 9.96 56.89
  Q 9.87 56.26 10.51 56.18
  L 15.36 55.60
  Z"
/>
<path fill="#76757b" d="
  M 41.80 55.73
  L 42.04 56.34
  Q 37.53 58.63 33.99 58.28
  Q 37.48 55.86 41.80 55.73
  Z"
/>
<path fill="#ffffff" d="
  M 26.05 60.25
  Q 25.98 60.53 25.47 60.55
  Q 25.05 60.45 24.91 60.52
  Q 22.03 60.47 22.57 57.44
  A 0.31 0.30 27.7 0 1 23.09 57.28
  L 26.05 60.25
  Z"
/>
<path fill="#d8d8db" d="
  M 21.45 61.32
  L 17.25 62.05
  L 16.50 60.03
  C 16.09 58.09 19.00 58.30 20.54 58.31
  Q 21.04 58.32 21.34 58.72
  Q 22.13 59.78 21.45 61.32
  Z"
/>
<path fill="#6a3d0a" d="
  M 91.55 74.06
  Q 90.59 75.47 91.16 75.20
  Q 87.41 74.21 85.25 72.66
  A 0.45 0.45 0.0 0 0 84.54 73.10
  Q 84.96 75.70 84.35 78.43
  Q 82.54 77.52 82.42 76.28
  Q 84.18 74.27 84.02 70.82
  A 0.37 0.37 0.0 0 1 84.65 70.55
  Q 86.81 72.83 89.77 73.94
  A 0.31 0.31 0.0 0 0 90.08 73.42
  L 84.72 68.85
  A 1.21 1.18 17.0 0 1 84.31 68.10
  Q 83.81 64.27 85.49 60.83
  Q 85.74 60.30 85.16 60.25
  C 83.06 60.04 82.99 64.71 83.21 65.94
  A 0.66 0.66 0.0 0 1 82.06 66.48
  L 79.95 64.04
  A 0.71 0.70 28.2 0 0 78.72 64.41
  Q 78.70 64.58 78.70 64.79
  Q 78.08 64.25 77.51 64.30
  Q 78.08 62.98 78.97 62.16
  Q 79.39 61.78 79.87 62.06
  Q 80.69 62.52 80.82 63.44
  A 0.57 0.57 0.0 0 0 81.95 63.38
  C 82.03 61.46 84.92 56.12 86.83 60.16
  A 1.20 1.20 0.0 0 1 86.83 61.22
  Q 85.36 64.21 85.57 67.56
  A 1.44 1.38 21.6 0 0 85.97 68.43
  L 91.55 74.06
  Z"
/>
<path fill="#9a8210" d="
  M 16.50 60.03
  L 17.25 62.05
  L 12.40 63.70
  Q 11.05 62.83 11.04 61.51
  Q 11.03 61.00 11.45 60.71
  Q 13.89 59.00 16.50 60.03
  Z"
/>
<path fill="#b0abb2" d="
  M 26.05 60.25
  L 27.76 61.66
  Q 28.31 62.11 27.67 62.42
  Q 27.25 62.63 26.46 62.53
  Q 26.41 61.47 25.47 60.55
  Q 25.98 60.53 26.05 60.25
  Z"
/>
<path fill="#c1a972" d="
  M 82.42 76.28
  Q 81.31 72.65 82.54 70.01
  A 1.62 1.61 -68.6 0 0 81.58 67.80
  Q 79.43 67.09 78.70 64.79
  Q 78.70 64.58 78.72 64.41
  A 0.71 0.70 28.2 0 1 79.95 64.04
  L 82.06 66.48
  A 0.66 0.66 0.0 0 0 83.21 65.94
  C 82.99 64.71 83.06 60.04 85.16 60.25
  Q 85.74 60.30 85.49 60.83
  Q 83.81 64.27 84.31 68.10
  A 1.21 1.18 17.0 0 0 84.72 68.85
  L 90.08 73.42
  A 0.31 0.31 0.0 0 1 89.77 73.94
  Q 86.81 72.83 84.65 70.55
  A 0.37 0.37 0.0 0 0 84.02 70.82
  Q 84.18 74.27 82.42 76.28
  Z"
/>
<path fill="#58595a" d="
  M 24.91 60.52
  Q 25.05 60.45 25.47 60.55
  Q 26.41 61.47 26.46 62.53
  Q 25.64 63.11 24.81 63.10
  Q 24.28 63.10 24.17 62.58
  Q 23.99 61.74 24.91 60.52
  Z"
/>
<path fill="#58595a" d="
  M 21.45 61.32
  Q 21.48 62.71 22.86 63.25
  Q 23.37 63.45 22.98 63.83
  C 21.99 64.80 17.56 66.47 18.12 63.71
  Q 18.21 63.25 17.75 63.25
  L 17.31 63.25
  A 0.37 0.37 0.0 0 0 16.96 63.51
  C 16.38 65.46 13.63 66.42 12.40 63.70
  L 17.25 62.05
  L 21.45 61.32
  Z"
/>
<path fill="#020101" d="
  M 77.51 64.30
  Q 78.08 64.25 78.70 64.79
  Q 79.43 67.09 81.58 67.80
  A 1.62 1.61 -68.6 0 1 82.54 70.01
  Q 81.31 72.65 82.42 76.28
  Q 82.54 77.52 84.35 78.43
  Q 84.21 79.09 83.75 79.37
  A 0.68 0.68 0.0 0 1 82.79 79.07
  L 81.61 76.48
  Q 81.39 75.99 81.05 76.40
  Q 76.73 81.59 72.53 76.32
  A 0.42 0.42 0.0 0 0 71.79 76.50
  Q 70.66 82.53 65.06 84.99
  Q 64.59 85.20 64.25 84.82
  L 62.34 82.68
  A 0.67 0.67 0.0 0 0 61.40 82.62
  L 58.64 84.93
  Q 58.18 85.32 57.71 84.95
  Q 55.49 83.21 52.62 83.01
  A 0.44 0.44 0.0 0 0 52.18 83.62
  L 53.70 87.32
  Q 53.90 87.81 53.39 87.91
  Q 51.14 88.38 51.99 86.45
  Q 52.14 84.64 51.05 82.47
  Q 50.74 81.85 51.43 81.90
  Q 54.57 82.14 57.34 83.47
  Q 57.79 83.68 58.27 83.55
  Q 60.92 82.83 60.38 80.79
  L 59.98 79.69
  A 0.49 0.48 -44.1 0 0 59.07 79.68
  Q 58.66 80.71 59.75 81.29
  L 59.89 81.52
  Q 60.00 81.69 59.81 81.76
  Q 58.52 82.21 57.76 80.63
  Q 57.50 80.09 57.83 79.59
  L 58.92 77.92
  A 0.91 0.91 0.0 0 1 60.46 77.93
  L 63.56 82.78
  A 0.57 0.57 0.0 0 0 64.55 82.22
  L 60.38 74.00
  A 0.70 0.69 53.6 0 1 60.49 73.21
  L 62.38 71.22
  Q 62.88 70.69 63.11 71.38
  Q 64.69 76.02 67.52 79.94
  Q 67.85 80.40 67.62 80.91
  C 67.40 81.41 65.85 82.95 65.99 83.25
  Q 66.19 83.69 66.57 83.39
  Q 72.97 78.34 70.50 70.79
  C 69.23 66.91 65.23 65.83 62.30 68.76
  Q 60.82 70.25 59.63 72.05
  Q 59.33 72.52 59.11 72.00
  L 58.16 69.64
  A 1.26 1.26 0.0 0 0 56.00 69.33
  Q 55.15 70.41 55.23 71.22
  L 54.82 71.36
  A 0.53 0.53 0.0 0 1 54.13 70.74
  Q 54.90 67.67 57.97 68.31
  Q 58.49 68.42 58.72 68.90
  L 59.06 69.65
  Q 59.32 70.21 59.78 69.79
  C 62.66 67.18 65.53 64.52 69.50 67.52
  A 0.46 0.45 -64.8 0 0 70.22 67.26
  Q 70.92 64.17 73.84 63.28
  A 1.41 1.41 0.0 0 1 74.75 63.31
  L 77.51 64.30
  Z
  M 78.1450 77.9303
  A 7.10 4.13 70.2 0 0 79.6258 69.8510
  A 7.10 4.13 70.2 0 0 73.3350 64.5697
  A 7.10 4.13 70.2 0 0 71.8542 72.6490
  A 7.10 4.13 70.2 0 0 78.1450 77.9303
  Z
  M 62.6566 73.4915
  A 0.29 0.29 0.0 0 0 62.2677 73.3614
  L 61.7128 73.6380
  A 0.29 0.29 0.0 0 0 61.5827 74.0269
  L 65.1434 81.1685
  A 0.29 0.29 0.0 0 0 65.5323 81.2986
  L 66.0872 81.0220
  A 0.29 0.29 0.0 0 0 66.2173 80.6331
  L 62.6566 73.4915
  Z"
/>
<path fill="#c1a972" d="
  M 78.1450 77.9303
  A 7.10 4.13 70.2 0 1 71.8542 72.6490
  A 7.10 4.13 70.2 0 1 73.3350 64.5697
  A 7.10 4.13 70.2 0 1 79.6258 69.8510
  A 7.10 4.13 70.2 0 1 78.1450 77.9303
  Z
  M 77.6945 76.6877
  A 5.51 2.38 70.0 0 0 78.0465 70.6960
  A 5.51 2.38 70.0 0 0 73.9255 66.3323
  A 5.51 2.38 70.0 0 0 73.5735 72.3240
  A 5.51 2.38 70.0 0 0 77.6945 76.6877
  Z"
/>
<path fill="#020101" d="
  M 77.6945 76.6877
  A 5.51 2.38 70.0 0 1 73.5735 72.3240
  A 5.51 2.38 70.0 0 1 73.9255 66.3323
  A 5.51 2.38 70.0 0 1 78.0465 70.6960
  A 5.51 2.38 70.0 0 1 77.6945 76.6877
  Z
  M 77.0036 75.1836
  A 3.91 1.04 71.3 0 0 76.7351 71.1466
  A 3.91 1.04 71.3 0 0 74.4964 67.7764
  A 3.91 1.04 71.3 0 0 74.7649 71.8134
  A 3.91 1.04 71.3 0 0 77.0036 75.1836
  Z"
/>
<path fill="#c1a972" d="
  M 59.75 81.29
  Q 60.19 81.35 60.38 80.79
  Q 60.92 82.83 58.27 83.55
  Q 57.79 83.68 57.34 83.47
  Q 54.57 82.14 51.43 81.90
  Q 50.74 81.85 51.05 82.47
  Q 52.14 84.64 51.99 86.45
  L 50.80 85.74
  Q 50.02 83.55 48.33 81.92
  Q 48.08 81.68 48.28 81.41
  L 48.59 81.00
  A 0.83 0.81 52.0 0 0 48.68 80.20
  L 46.71 75.59
  Q 46.46 75.00 45.98 75.43
  L 44.56 76.70
  Q 44.20 77.03 44.43 77.46
  L 49.36 86.63
  Q 49.68 86.87 49.35 87.41
  A 0.80 0.80 0.0 0 1 47.99 87.42
  L 45.19 83.03
  A 1.49 1.49 0.0 0 0 42.45 83.94
  L 42.79 88.73
  A 0.29 0.29 0.0 0 1 42.24 88.89
  Q 40.10 84.98 40.57 80.02
  Q 40.71 78.60 39.89 77.22
  Q 39.69 74.46 41.52 73.65
  A 0.72 0.72 0.0 0 1 42.46 74.00
  L 43.30 75.78
  Q 43.55 76.31 43.85 75.80
  Q 46.03 72.15 50.13 71.56
  C 56.12 70.71 53.13 76.68 51.82 79.09
  Q 51.47 79.73 52.17 79.94
  L 55.40 80.88
  Q 55.97 81.05 55.94 80.45
  L 55.41 71.73
  Q 55.15 72.05 55.23 71.22
  Q 55.15 70.41 56.00 69.33
  A 1.26 1.26 0.0 0 1 58.16 69.64
  L 59.11 72.00
  Q 59.33 72.52 59.63 72.05
  Q 60.82 70.25 62.30 68.76
  C 65.23 65.83 69.23 66.91 70.50 70.79
  Q 72.97 78.34 66.57 83.39
  Q 66.19 83.69 65.99 83.25
  C 65.85 82.95 67.40 81.41 67.62 80.91
  Q 67.85 80.40 67.52 79.94
  Q 64.69 76.02 63.11 71.38
  Q 62.88 70.69 62.38 71.22
  L 60.49 73.21
  A 0.70 0.69 53.6 0 0 60.38 74.00
  L 64.55 82.22
  A 0.57 0.57 0.0 0 1 63.56 82.78
  L 60.46 77.93
  A 0.91 0.91 0.0 0 0 58.92 77.92
  L 57.83 79.59
  Q 57.50 80.09 57.76 80.63
  Q 58.52 82.21 59.81 81.76
  Q 60.00 81.69 59.89 81.52
  L 59.75 81.29
  Z
  M 64.28 68.82
  L 67.55 78.61
  A 0.12 0.12 0.0 0 0 67.71 78.69
  L 67.73 78.68
  A 5.16 3.62 71.5 0 0 69.52 72.64
  L 69.44 72.41
  A 5.16 3.62 71.5 0 0 64.37 68.66
  L 64.36 68.67
  A 0.12 0.12 0.0 0 0 64.28 68.82
  Z
  M 58.21 76.05
  A 0.63 0.63 0.0 0 0 59.27 75.39
  L 58.06 73.17
  Q 57.86 72.80 57.76 73.21
  Q 57.37 74.85 58.21 76.05
  Z
  M 51.31 73.35
  L 49.29 73.29
  A 0.67 0.67 0.0 0 0 48.60 73.94
  L 48.59 74.11
  A 4.00 1.57 -88.1 0 0 50.03 78.16
  L 50.25 78.16
  A 4.00 1.57 -88.1 0 0 51.95 74.22
  L 51.96 74.05
  A 0.67 0.67 0.0 0 0 51.31 73.35
  Z
  M 42.11 78.52
  L 42.29 80.69
  A 0.89 0.85 -50.5 0 0 44.02 80.49
  Q 43.91 78.87 42.58 78.21
  A 0.32 0.32 0.0 0 0 42.11 78.52
  Z"
/>
<ellipse fill="#ff7d01" cx="0.00" cy="0.00" transform="translate(75.75,71.48) rotate(71.3)" rx="3.91" ry="1.04"/>
<path fill="#020101" d="
  M 64.28 68.82
  A 0.12 0.12 0.0 0 1 64.36 68.67
  L 64.37 68.66
  A 5.16 3.62 71.5 0 1 69.44 72.41
  L 69.52 72.64
  A 5.16 3.62 71.5 0 1 67.73 78.68
  L 67.71 78.69
  A 0.12 0.12 0.0 0 1 67.55 78.61
  L 64.28 68.82
  Z
  M 65.78 70.12
  L 67.86 75.60
  A 0.10 0.10 0.0 0 0 67.99 75.66
  L 68.00 75.65
  A 2.86 1.14 69.3 0 0 68.06 72.58
  L 67.94 72.26
  A 2.86 1.14 69.3 0 0 65.86 69.99
  L 65.84 69.99
  A 0.10 0.10 0.0 0 0 65.78 70.12
  Z"
/>
<path fill="#ff7d01" d="
  M 65.78 70.12
  A 0.10 0.10 0.0 0 1 65.84 69.99
  L 65.86 69.99
  A 2.86 1.14 69.3 0 1 67.94 72.26
  L 68.06 72.58
  A 2.86 1.14 69.3 0 1 68.00 75.65
  L 67.99 75.66
  A 0.10 0.10 0.0 0 1 67.86 75.60
  L 65.78 70.12
  Z"
/>
<path fill="#020101" d="
  M 55.41 71.73
  L 55.94 80.45
  Q 55.97 81.05 55.40 80.88
  L 52.17 79.94
  Q 51.47 79.73 51.82 79.09
  C 53.13 76.68 56.12 70.71 50.13 71.56
  Q 46.03 72.15 43.85 75.80
  Q 43.55 76.31 43.30 75.78
  L 42.46 74.00
  A 0.72 0.72 0.0 0 0 41.52 73.65
  Q 39.69 74.46 39.89 77.22
  Q 38.48 77.49 38.59 76.85
  C 39.19 77.01 39.23 73.38 41.47 72.66
  Q 41.92 72.51 42.30 72.80
  L 43.49 73.72
  Q 44.13 74.21 44.63 73.58
  Q 48.32 68.96 53.54 71.53
  A 2.33 2.32 56.9 0 0 54.57 71.75
  L 55.41 71.73
  Z
  M 53.62 79.32
  Q 54.69 79.67 54.98 78.50
  Q 55.33 77.07 54.02 77.41
  Q 53.57 77.52 53.25 78.64
  Q 53.11 79.16 53.62 79.32
  Z"
/>
<path fill="#020101" d="
  M 58.21 76.05
  Q 57.37 74.85 57.76 73.21
  Q 57.86 72.80 58.06 73.17
  L 59.27 75.39
  A 0.63 0.63 0.0 0 1 58.21 76.05
  Z"
/>
<path fill="#020101" d="
  M 51.31 73.35
  A 0.67 0.67 0.0 0 1 51.96 74.05
  L 51.95 74.22
  A 4.00 1.57 -88.1 0 1 50.25 78.16
  L 50.03 78.16
  A 4.00 1.57 -88.1 0 1 48.59 74.11
  L 48.60 73.94
  A 0.67 0.67 0.0 0 1 49.29 73.29
  L 51.31 73.35
  Z
  M 49.9013 76.2230
  A 1.02 0.67 112.4 0 0 50.9094 75.5353
  A 1.02 0.67 112.4 0 0 50.6787 74.3370
  A 1.02 0.67 112.4 0 0 49.6706 75.0247
  A 1.02 0.67 112.4 0 0 49.9013 76.2230
  Z"
/>
<rect fill="#ff7d01" x="-0.60" y="-4.28" transform="translate(63.90,77.33) rotate(-26.5)" width="1.20" height="8.56" rx="0.29"/>
<ellipse fill="#ff7d01" cx="0.00" cy="0.00" transform="translate(50.29,75.28) rotate(112.4)" rx="1.02" ry="0.67"/>
<path fill="#020101" d="
  M 50.80 85.74
  Q 50.49 86.28 49.94 86.55
  Q 49.78 86.40 49.36 86.63
  L 44.43 77.46
  Q 44.20 77.03 44.56 76.70
  L 45.98 75.43
  Q 46.46 75.00 46.71 75.59
  L 48.68 80.20
  A 0.83 0.81 52.0 0 1 48.59 81.00
  L 48.28 81.41
  Q 48.08 81.68 48.33 81.92
  Q 50.02 83.55 50.80 85.74
  Z
  M 47.0576 79.9788
  A 1.39 0.48 65.9 0 0 46.9282 78.5140
  A 1.39 0.48 65.9 0 0 45.9224 77.4412
  A 1.39 0.48 65.9 0 0 46.0518 78.9060
  A 1.39 0.48 65.9 0 0 47.0576 79.9788
  Z"
/>
<path fill="#392b0c" d="
  M 38.59 76.85
  Q 38.48 77.49 39.89 77.22
  Q 40.71 78.60 40.57 80.02
  Q 40.10 84.98 42.24 88.89
  A 0.29 0.29 0.0 0 0 42.79 88.73
  L 42.45 83.94
  A 1.49 1.49 0.0 0 1 45.19 83.03
  L 47.99 87.42
  A 0.80 0.80 0.0 0 0 49.35 87.41
  Q 49.68 86.87 49.36 86.63
  Q 49.78 86.40 49.94 86.55
  Q 50.61 88.22 49.88 88.96
  Q 49.49 89.35 49.03 89.05
  Q 46.38 87.35 44.94 84.52
  A 0.95 0.95 0.0 0 0 43.16 85.10
  L 43.77 89.05
  A 0.92 0.92 0.0 0 1 42.28 89.91
  Q 39.89 87.99 39.98 84.90
  A 0.37 0.37 0.0 0 0 39.31 84.68
  L 37.27 87.59
  Q 36.93 88.08 37.12 88.65
  L 38.66 93.11
  A 0.99 0.99 0.0 0 1 37.00 94.10
  L 33.65 90.51
  A 1.90 1.86 19.4 0 1 33.17 89.53
  Q 32.56 85.53 30.57 81.98
  A 0.61 0.60 58.5 0 0 29.71 81.77
  L 27.96 82.93
  A 1.08 1.07 -4.9 0 1 26.38 81.60
  Q 30.17 73.03 38.59 76.85
  Z
  M 36.20 87.06
  C 38.74 86.88 39.07 80.20 38.63 78.49
  Q 38.50 77.97 38.02 77.73
  C 35.03 76.24 28.73 76.69 28.02 81.01
  Q 27.93 81.61 28.44 81.29
  L 30.54 79.96
  Q 31.01 79.66 31.23 80.18
  C 32.76 83.65 33.80 89.31 36.43 91.87
  A 0.31 0.30 -76.4 0 0 36.93 91.56
  L 35.79 87.65
  A 0.46 0.46 0.0 0 1 36.20 87.06
  Z"
/>
<path fill="#c1a972" d="
  M 35.79 87.65
  L 36.93 91.56
  A 0.31 0.30 -76.4 0 1 36.43 91.87
  C 33.80 89.31 32.76 83.65 31.23 80.18
  Q 31.01 79.66 30.54 79.96
  L 28.44 81.29
  Q 27.93 81.61 28.02 81.01
  C 28.73 76.69 35.03 76.24 38.02 77.73
  Q 38.50 77.97 38.63 78.49
  C 39.07 80.20 38.74 86.88 36.20 87.06
  A 0.46 0.46 0.0 0 0 35.79 87.65
  Z
  M 35.82 78.26
  L 33.27 78.49
  A 0.67 0.67 0.0 0 0 32.70 79.39
  L 35.17 85.90
  A 0.47 0.47 0.0 0 0 36.07 85.86
  L 37.59 80.39
  A 1.69 1.69 0.0 0 0 35.82 78.26
  Z"
/>
<path fill="#ff7d01" d="
  M 53.62 79.32
  Q 53.11 79.16 53.25 78.64
  Q 53.57 77.52 54.02 77.41
  Q 55.33 77.07 54.98 78.50
  Q 54.69 79.67 53.62 79.32
  Z"
/>
<ellipse fill="#9a8210" cx="0.00" cy="0.00" transform="translate(46.49,78.71) rotate(65.9)" rx="1.39" ry="0.48"/>
<path fill="#392b0c" d="
  M 35.82 78.26
  A 1.69 1.69 0.0 0 1 37.59 80.39
  L 36.07 85.86
  A 0.47 0.47 0.0 0 1 35.17 85.90
  L 32.70 79.39
  A 0.67 0.67 0.0 0 1 33.27 78.49
  L 35.82 78.26
  Z
  M 34.47 80.82
  Q 34.63 81.75 35.22 82.51
  Q 35.76 83.21 35.96 82.35
  Q 36.34 80.64 35.15 79.46
  A 0.53 0.53 0.0 0 0 34.26 79.74
  Q 34.17 80.23 34.35 80.51
  Q 34.44 80.65 34.47 80.82
  Z"
/>
<path fill="#58595a" d="
  M 42.11 78.52
  A 0.32 0.32 0.0 0 1 42.58 78.21
  Q 43.91 78.87 44.02 80.49
  A 0.89 0.85 -50.5 0 1 42.29 80.69
  L 42.11 78.52
  Z"
/>
<path fill="#ff7d01" d="
  M 60.38 80.79
  Q 60.19 81.35 59.75 81.29
  Q 58.66 80.71 59.07 79.68
  A 0.49 0.48 -44.1 0 1 59.98 79.69
  L 60.38 80.79
  Z"
/>
<path fill="#ff7d01" d="
  M 34.35 80.51
  Q 34.17 80.23 34.26 79.74
  A 0.53 0.53 0.0 0 1 35.15 79.46
  Q 36.34 80.64 35.96 82.35
  Q 35.76 83.21 35.22 82.51
  Q 34.63 81.75 34.47 80.82
  Q 34.44 80.65 34.35 80.51
  Z"
/>
</svg>
